<?xml version="1.0" encoding="UTF-8" standalone="no"?>
<svg
   xmlns:dc="http://purl.org/dc/elements/1.1/"
   xmlns:cc="http://creativecommons.org/ns#"
   xmlns:rdf="http://www.w3.org/1999/02/22-rdf-syntax-ns#"
   xmlns:svg="http://www.w3.org/2000/svg"
   xmlns="http://www.w3.org/2000/svg"
   xmlns:sodipodi="http://sodipodi.sourceforge.net/DTD/sodipodi-0.dtd"
   xmlns:inkscape="http://www.inkscape.org/namespaces/inkscape"
   version="1.1"
   height="628"
   width="726"
   id="svg4"
   sodipodi:docname="coluthia-logo-hex.svg"
   inkscape:version="0.92.5 (2060ec1f9f, 2020-04-08)"
   inkscape:export-filename="/home/blain/Pictures/coluthia-logo-hex.png"
   inkscape:export-xdpi="96"
   inkscape:export-ydpi="96">
  <metadata
     id="metadata10">
    <rdf:RDF>
      <cc:Work
         rdf:about="">
        <dc:format>image/svg+xml</dc:format>
        <dc:type
           rdf:resource="http://purl.org/dc/dcmitype/StillImage" />
        <dc:title></dc:title>
      </cc:Work>
    </rdf:RDF>
  </metadata>
  <defs
     id="defs8">
    <marker
       inkscape:isstock="true"
       style="overflow:visible"
       id="marker5109"
       refX="0.0"
       refY="0.0"
       orient="auto"
       inkscape:stockid="Arrow1Lstart">
      <path
         transform="scale(0.8) translate(12.5,0)"
         style="fill-rule:evenodd;stroke:#000000;stroke-width:1pt;stroke-opacity:1;fill:#000000;fill-opacity:1"
         d="M 0.0,0.0 L 5.0,-5.0 L -12.5,0.0 L 5.0,5.0 L 0.0,0.0 z "
         id="path5107" />
    </marker>
    <marker
       inkscape:isstock="true"
       style="overflow:visible"
       id="marker5081"
       refX="0.0"
       refY="0.0"
       orient="auto"
       inkscape:stockid="Arrow1Lstart">
      <path
         transform="scale(0.8) translate(12.5,0)"
         style="fill-rule:evenodd;stroke:#000000;stroke-width:1pt;stroke-opacity:1;fill:#000000;fill-opacity:1"
         d="M 0.0,0.0 L 5.0,-5.0 L -12.5,0.0 L 5.0,5.0 L 0.0,0.0 z "
         id="path5079" />
    </marker>
    <marker
       inkscape:isstock="true"
       style="overflow:visible"
       id="marker5041"
       refX="0.0"
       refY="0.0"
       orient="auto"
       inkscape:stockid="Arrow1Lstart">
      <path
         transform="scale(0.8) translate(12.5,0)"
         style="fill-rule:evenodd;stroke:#000000;stroke-width:1pt;stroke-opacity:1;fill:#000000;fill-opacity:1"
         d="M 0.0,0.0 L 5.0,-5.0 L -12.5,0.0 L 5.0,5.0 L 0.0,0.0 z "
         id="path5039" />
    </marker>
    <marker
       inkscape:isstock="true"
       style="overflow:visible"
       id="Arrow1Lstart"
       refX="0.0"
       refY="0.0"
       orient="auto"
       inkscape:stockid="Arrow1Lstart">
      <path
         transform="scale(0.8) translate(12.5,0)"
         style="fill-rule:evenodd;stroke:#000000;stroke-width:1pt;stroke-opacity:1;fill:#000000;fill-opacity:1"
         d="M 0.0,0.0 L 5.0,-5.0 L -12.5,0.0 L 5.0,5.0 L 0.0,0.0 z "
         id="path4524" />
    </marker>
  </defs>
  <sodipodi:namedview
     pagecolor="#ffffff"
     bordercolor="#666666"
     borderopacity="1"
     objecttolerance="10"
     gridtolerance="10"
     guidetolerance="10"
     inkscape:pageopacity="0"
     inkscape:pageshadow="2"
     inkscape:window-width="3840"
     inkscape:window-height="2095"
     id="namedview6"
     showgrid="false"
     inkscape:zoom="0.37190083"
     inkscape:cx="-825.48889"
     inkscape:cy="314"
     inkscape:window-x="1080"
     inkscape:window-y="0"
     inkscape:window-maximized="1"
     inkscape:current-layer="svg4" />
  <polygon
     points="723,314 543,625.769145 183,625.769145 3,314 183,2.230855 543,2.230855 723,314"
     fill="black"
     stroke="black"
     stroke-width="4"
     id="polygon2"
     style="fill:#4f83c1;stroke:none;stroke-opacity:1;fill-opacity:1" />
  <path
     inkscape:export-ydpi="96"
     inkscape:export-xdpi="96"
     transform="matrix(-1.9399504,3.3600926,-3.0638128,-1.7688932,1207.2087,176.65326)"
     d="m 150.64406,189.42372 c 4.86088,-1.04695 3.80946,6.03584 1.74011,8.0791 -5.60782,5.53712 -14.55766,1.23147 -17.89831,-4.59888 -5.97565,-10.42914 0.74928,-23.15231 10.93788,-27.71752 14.95218,-6.69962 31.88968,2.71642 37.53671,17.27687 7.52661,19.40679 -4.67342,40.68116 -23.61586,47.35593 -23.83712,8.39951 -49.49924,-6.6243 -57.17513,-29.95486 -9.296524,-28.25642 8.57147,-58.33248 36.29385,-66.99433 4.9023,-1.53172 10.00686,-2.40362 15.1386,-2.60199"
     sodipodi:t0="0"
     sodipodi:argument="-19.061699"
     sodipodi:radius="59.22958"
     sodipodi:revolution="1.7917149"
     sodipodi:expansion="1"
     sodipodi:cy="189.42372"
     sodipodi:cx="150.64406"
     id="path14"
     style="fill:none;fill-opacity:1;fill-rule:evenodd;stroke:#d3d3f5;stroke-width:3.23895669;stroke-miterlimit:4;stroke-dasharray:none;stroke-opacity:1"
     sodipodi:type="spiral" />
</svg>
