<?xml version="1.0" encoding="UTF-8"?>
<svg width="420.704mm" height="300.184mm" version="1.1" viewBox="0 0 42.704 30.184" xmlns="http://www.w3.org/2000/svg" xmlns:cc="http://creativecommons.org/ns#" xmlns:dc="http://purl.org/dc/elements/1.1/" xmlns:rdf="http://www.w3.org/1999/02/22-rdf-syntax-ns#">
    <defs>
        <linearGradient id="linearGradient1046" x2="1" gradientTransform="matrix(-1551.2,1e-7,-1e-7,-1551.2,5685,2659.2)" gradientUnits="userSpaceOnUse">
            <stop stop-color="#4474ac" offset="0" />
            <stop stop-color="#8cbefa" offset="1" />
        </linearGradient>
        <linearGradient id="linearGradient1252" gradientUnits="userSpaceOnUse">
            <stop stop-color="#395474" offset="0" />
            <stop stop-color="#3b5575" offset="1" />
        </linearGradient>
        <clipPath id="clip-path">
            <polygon class="cls-1" points="38.6 159.02 195.09 246.75 351.57 159.02 195.09 71.29" />
        </clipPath>
    </defs>
    <metadata>
        <rdf:RDF>
            <cc:Work rdf:about="">
                <dc:format>image/svg+xml</dc:format>
                <dc:type rdf:resource="http://purl.org/dc/dcmitype/StillImage" />
                <dc:title />
            </cc:Work>
        </rdf:RDF>
    </metadata>
    <g transform="matrix(.035278 0 0 -.035278 -147.29 115.09)">
        <path d="m4780.4 2406.1-484.67 279.82-114.63 66.18-5.94 3.43v156.72l605.24-349.43 605.26 349.44v-156.72l-5.95-3.43-599.31-346.01" fill="url(#linearGradient1046)" />
    </g>
    <path d="m21.352 24.68 21.352-12.327-21.352-12.327-21.352 12.328 21.352 12.327" fill="#8cbefa" />
    <path d="m21.352 24.39 21.102-12.184 0.24977 0.14393-21.352 12.327-21.352-12.327 0.24977-0.14429 21.102 12.184" fill="#d9efff" />
    <path d="m21.352 0.31304 21.102 12.184 0.24977-0.14393-21.352-12.327-21.352 12.327 0.24977 0.14429 21.102-12.184" fill="#d9efff" />
    <path d="m21.443 22.704 17.979-10.38-17.979-10.38-17.979 10.381 17.979 10.38" fill="url(#linearGradient1252)" />
    <g class="cls-6" transform="matrix(-.12176 0 0 .12554 45.198 -8.2736)" clip-path="url(#clip-path)" fill="#e6e6e6">
        <path class="cls-7" d="m199.16 91.48c-16 5.92-20.38 22.36-46 32.23-13.8 5.41-36.72 8.42-55.68 16-15.57 6.22-32.6 23.92-50.58 34.29 30.7 4 101.09 56.44 152.26 85.37 4.47-9.41 37-36.86 52.06-42.68 25.15-9.87 60.34-19.73 100.2-42.68-19.38-2.52-32-20.23-48.19-28.27-17.17-8.54-37.61-7.64-50.8-17.76-26.83-20.63-45.08-39.53-53.27-36.5z" fill="#e6e6e6" />
    </g>
    <path class="cls-8" d="m34.216 11.566c-2.5329-0.27385-6.7508 1.1573-11.157 3.7275-1.0626 0.62066-5.895 1.9626-8.7409 2.9745l7.1962 3.9927 15.824-9.2375s-0.77963-1.2048-3.1225-1.4571z" fill="#ccc" stroke-width=".13989" />
    <g fill="#999">
        <g stroke-width=".050064">
            <circle class="cls-9" transform="rotate(-55.12)" cx="-.95416" cy="16.707" r=".048062" opacity=".4" />
            <circle class="cls-9" transform="rotate(-55.12)" cx="-4.5785" cy="18.771" r=".048062" opacity=".4" />
            <circle class="cls-9" transform="rotate(-55.12)" cx="-5.6338" cy="21.879" r=".048062" opacity=".4" />
            <circle class="cls-9" transform="rotate(-55.12)" cx="7.9039" cy="30.255" r=".048062" opacity=".4" />
            <circle class="cls-9" transform="rotate(-55.12)" cx="-1.7006" cy="23.416" r=".048062" opacity=".4" />
            <circle class="cls-9" transform="rotate(-55.12)" cx="6.9624" cy="20.028" r=".048062" opacity=".4" />
            <circle class="cls-9" transform="rotate(-55.12)" cx="-3.2774" cy="15.304" r=".048062" opacity=".4" />
            <circle class="cls-9" transform="rotate(-55.12)" cx=".58731" cy="17.563" r=".048062" opacity=".4" />
            <circle class="cls-9" transform="rotate(-55.12)" cx="7.5789" cy="25.323" r=".048062" opacity=".4" />
        </g>
        <circle class="cls-9" transform="rotate(-55.12)" cx="5.9171" cy="28.687" r=".10573" opacity=".4" stroke-width=".11014" />
        <circle class="cls-9" transform="rotate(-55.12)" cx="7.7698" cy="28.158" r=".070709" opacity=".4" stroke-width=".073655" />
        <g stroke-width=".050064">
            <circle class="cls-9" transform="rotate(-55.12)" cx="10.358" cy="32.52" r=".048062" opacity=".4" />
            <circle class="cls-9" transform="rotate(-55.12)" cx="-1.6431" cy="18.294" r=".048062" opacity=".4" />
            <circle class="cls-9" transform="rotate(-55.12)" cx="-6.6402" cy="12.824" r=".048062" opacity=".4" />
            <circle class="cls-9" transform="rotate(-55.12)" cx="-6.2156" cy="16.349" r=".048062" opacity=".4" />
            <circle class="cls-9" transform="rotate(-55.12)" cx=".60934" cy="27.081" r=".048062" opacity=".4" />
            <circle class="cls-9" transform="rotate(-55.12)" cx="9.225" cy="28.459" r=".048062" opacity=".4" />
        </g>
    </g>
    <g fill="#f9f9f9">
        <circle class="cls-9" transform="rotate(-55.12)" cx="7.7842" cy="19.26" r=".11216" opacity=".4" stroke-width=".11683" />
        <circle class="cls-9" transform="rotate(124.88)" cx="-8.4838" cy="-25.955" r=".10332" opacity=".4" stroke-width=".10762" />
        <g stroke-width=".050064">
            <circle class="cls-9" transform="rotate(-55.12)" cx="9.4372" cy="30.498" r=".048062" opacity=".4" />
            <circle class="cls-9" transform="rotate(-55.12)" cx="-1.5229" cy="15.625" r=".048062" opacity=".4" />
            <circle class="cls-9" transform="rotate(-55.12)" cx="3.7902" cy="18.264" r=".048062" opacity=".4" />
            <circle class="cls-9" transform="rotate(-55.12)" cx="3.1473" cy="20.719" r=".048062" opacity=".4" />
            <circle class="cls-9" transform="rotate(-55.12)" cx="6.4268" cy="21.584" r=".048062" opacity=".4" />
            <circle class="cls-9" transform="rotate(-55.12)" cx="8.4164" cy="19.271" r=".048062" opacity=".4" />
            <circle class="cls-9" transform="rotate(-55.12)" cx="-4.5948" cy="21.793" r=".048062" opacity=".4" />
            <circle class="cls-9" transform="rotate(-55.12)" cx="-1.6859" cy="20.743" r=".048062" opacity=".4" />
            <circle class="cls-9" transform="rotate(-55.12)" cx="3.7668" cy="27.993" r=".048062" opacity=".4" />
        </g>
        <circle class="cls-9" transform="rotate(-55.12)" cx="6.8939" cy="28.368" r=".068591" opacity=".4" stroke-width=".071449" />
        <circle class="cls-9" transform="rotate(-55.12)" cx="-3.1258" cy="17.853" r=".12535" opacity=".4" stroke-width=".13057" />
    </g>
    <g fill="#999">
        <g stroke-width=".050064">
            <circle class="cls-9" transform="rotate(-55.12)" cx="-3.2342" cy="27.251" r=".048062" opacity=".4" />
            <circle class="cls-9" transform="rotate(-55.12)" cx="4.5999" cy="32.159" r=".048062" opacity=".4" />
            <circle class="cls-9" transform="rotate(-55.12)" cx=".78001" cy="31.773" r=".048062" opacity=".4" />
        </g>
        <circle class="cls-9" transform="rotate(-55.12)" cx="-4.6392" cy="29.559" r=".11441" opacity=".4" stroke-width=".11917" />
        <circle class="cls-9" transform="rotate(-55.12)" cx="7.7372" cy="35.479" r=".048062" opacity=".4" stroke-width=".050064" />
        <circle class="cls-9" transform="rotate(-55.12)" cx="2.9096" cy="29.993" r=".048062" opacity=".4" stroke-width=".050064" />
    </g>
    <circle class="cls-9" transform="rotate(-55.12)" cx="-5.1476" cy="25.06" r=".048062" fill="#666" opacity=".4" stroke-width=".050064" />
    <g fill="#999">
        <g stroke-width=".050064">
            <circle class="cls-9" transform="rotate(-55.12)" cx="5.4604" cy="34.261" r=".048062" opacity=".4" />
            <circle class="cls-9" transform="rotate(-55.12)" cx="-1.9921" cy="30.103" r=".048062" opacity=".4" />
            <circle class="cls-9" transform="rotate(-55.12)" cx="8.6173" cy="34.158" r=".048062" opacity=".4" />
        </g>
        <circle class="cls-9" transform="rotate(-55.12)" cx=".85048" cy="18.558" r=".085696" opacity=".4" stroke-width=".089267" />
        <circle class="cls-9" transform="rotate(-55.12)" cx="10.56" cy="33.383" r=".090693" opacity=".4" stroke-width=".094472" />
        <circle class="cls-9" transform="rotate(-55.12)" cx="7.177" cy="34.242" r=".10668" opacity=".4" stroke-width=".11112" />
        <circle class="cls-9" transform="rotate(-55.12)" cx="-1.7907" cy="28.592" r=".1058" opacity=".4" stroke-width=".11021" />
        <circle class="cls-9" transform="rotate(-55.12)" cx="5.3487" cy="28.219" r=".040698" opacity=".4" stroke-width=".042393" />
    </g>
    <circle class="cls-9" transform="rotate(-55.12)" cx="10.195" cy="32.985" r=".04961" fill="#fff" opacity=".4" stroke-width=".051677" />
    <circle class="cls-9" transform="rotate(-55.12)" cx="-4.6939" cy="26.654" r=".032398" fill="#f9f9f9" opacity=".4" stroke-width=".033748" />
    <g fill="#999">
        <circle class="cls-9" transform="rotate(-55.12)" cx="1.4167" cy="18.821" r=".048062" opacity=".4" stroke-width=".050064" />
        <circle class="cls-9" transform="rotate(-55.12)" cx="-6.1512" cy="15.423" r=".085696" opacity=".4" stroke-width=".089267" />
        <g stroke-width=".050064">
            <circle class="cls-9" transform="rotate(-55.12)" cx="-5.0091" cy="15.391" r=".048062" opacity=".4" />
            <circle class="cls-9" transform="rotate(-55.12)" cx="6.0318" cy="29.183" r=".048062" opacity=".4" />
            <circle class="cls-9" transform="rotate(-55.12)" cx="-1.2308" cy="28.981" r=".048062" opacity=".4" />
        </g>
    </g>
    <path d="m18.349 9.8822c-0.21342-0.0026-0.36962-0.02995-0.58631-0.10279-0.50757-0.1706-0.90468-0.54536-1.1094-1.047-0.1106-0.27094-0.15553-0.69215-0.10344-0.96946 0.11358-0.60462 0.52584-1.1183 1.0976-1.3677 0.19816-0.086421 0.66414-0.15335 0.87861-0.12621 0.35338 0.044731 0.66939 0.1798 0.95308 0.40738 0.94405 0.7573 0.87655 2.1983-0.13525 2.8872-0.29919 0.20371-0.67007 0.32247-0.99482 0.31856zm0.38585-1.0398c0.57134-0.27362 0.62864-1.0962 0.10224-1.4679-0.2167-0.15303-0.32745-0.17717-0.62009-0.13513-0.22321 0.032062-0.25388 0.042246-0.36776 0.12208-0.1535 0.10761-0.28896 0.2975-0.34533 0.4841-0.03627 0.12006-0.03824 0.17311-0.013 0.35025 0.02642 0.18559 0.04011 0.22435 0.12304 0.34922 0.25175 0.37896 0.70142 0.49825 1.1209 0.29736z" fill="#acf" stroke-width=".02343" />
    <path d="m18.503 11.134c-0.08367-0.18353-0.15581-0.31068-0.19158-0.33771-0.06312-0.0477-0.70849-0.16619-0.81882-0.15034-0.08656 0.01243-0.12614 0.04276-0.33504 0.25673-0.09647 0.09881-0.18543 0.18973-0.19769 0.20204-0.01322 0.01327-0.08664-0.01164-0.1804-0.06121-0.08696-0.04597-0.15852-0.08648-0.15903-0.09001-4.98e-4 -0.0035 0.02746-0.14856 0.06215-0.32229 0.05243-0.26257 0.0577-0.32736 0.03124-0.38391-0.04004-0.08559-0.47037-0.5423-0.56146-0.59588-0.06401-0.03765-0.08652-0.03649-0.39112 0.02032l-0.3232 0.06027-0.08661-0.16321-0.08662-0.16321 0.09746-0.09415c0.0536-0.05178 0.15585-0.14676 0.22722-0.21106 0.19854-0.17888 0.19626-0.1676 0.12874-0.63763-0.0478-0.33277-0.06648-0.41571-0.10244-0.45399-0.0242-0.025754-0.14892-0.096907-0.27718-0.15811-0.34988-0.16694-0.32492-0.13861-0.28981-0.32906l0.02994-0.16234 0.34646-0.061602c0.25453-0.04526 0.35587-0.072025 0.38191-0.10088 0.05992-0.066405 0.35332-0.6229 0.36797-0.69792 0.01162-0.059536-0.01056-0.11779-0.14005-0.36918-0.08462-0.16417-0.15084-0.30145-0.14715-0.30508 0.15709-0.15425 0.25784-0.2356 0.28009-0.22614 0.0155 0.00658 0.12753 0.0687 0.24894 0.13801 0.26121 0.14913 0.3069 0.16745 0.38843 0.15574 0.1052-0.01511 0.70427-0.31676 0.74902-0.37715 0.02519-0.033992 0.05919-0.18157 0.08665-0.37607l0.04519-0.32013 0.3607-0.051812 0.06972 0.14976c0.03835 0.082368 0.09726 0.21279 0.13092 0.28982 0.03365 0.07703 0.08858 0.16057 0.12206 0.18564 0.06198 0.046409 0.62408 0.15694 0.79071 0.15548 0.10496-9.184e-4 0.13604-0.02342 0.38656-0.2802l0.19993-0.20489 0.14971 0.080455c0.08234 0.044249 0.15376 0.082308 0.15871 0.084573 5e-3 0.00227-0.01886 0.14991-0.05289 0.3281-0.04109 0.21513-0.05426 0.34277-0.03919 0.3799 0.02368 0.058342 0.46011 0.51952 0.54748 0.57853 0.04141 0.027966 0.1116 0.027147 0.40111-0.00467l0.35092-0.038571 0.07717 0.1528c0.04245 0.084041 0.07491 0.15506 0.07214 0.15781-0.0028 0.00277-0.10575 0.095268-0.22884 0.20559-0.1231 0.11032-0.2369 0.22645-0.25289 0.25807-0.04281 0.084614 0.06708 0.84959 0.13197 0.91873 0.02425 0.025835 0.16614 0.10524 0.31531 0.17645 0.14917 0.07121 0.27403 0.131 0.27746 0.13286 0.0035 0.0019-0.0077 0.07914-0.0248 0.17174l-0.03104 0.16835-0.34646 0.06161c-0.24225 0.04308-0.35641 0.07263-0.37954 0.09826-0.05251 0.0582-0.3524 0.64891-0.36674 0.72238-0.01055 0.05406 0.01517 0.12107 0.13722 0.35819 0.08261 0.16043 0.15068 0.29502 0.15126 0.29907 5.83e-4 0.0041-0.05662 0.0635-0.12712 0.1321-0.07835 0.07622-0.139 0.1185-0.156 0.1087-0.20755-0.11951-0.47691-0.26441-0.51978-0.27961-0.02997-0.01063-0.08244-0.0153-0.11661-0.0104-0.0807 0.01159-0.67424 0.29778-0.7338 0.35382-0.04349 0.04093-0.06501 0.14078-0.12503 0.58026l-0.01895 0.13883-0.36036 0.05176zm0.52908-1.1089c0.41646-0.15023 0.75023-0.40643 1.0051-0.77154 0.50068-0.71717 0.50727-1.6213 0.0171-2.3486-0.32869-0.48769-0.85571-0.8114-1.4585-0.89582-0.16446-0.023033-0.2442-0.019381-0.55164 0.025269-0.30336 0.044065-0.38693 0.06455-0.53599 0.13142-0.68958 0.30936-1.151 0.9416-1.2399 1.6988-0.03025 0.25783 0.03044 0.72225 0.12528 0.9587 0.42157 1.051 1.5861 1.5814 2.6384 1.2018z" fill="#d5e5ff" stroke-width=".02343" />
    <g transform="matrix(.068865 -.020997 .020997 .068865 19.516 3.3008)" fill="#5f5fd3" featurekey="symbolFeature-0">
        <g fill="#5f5fd3">
            <path d="m87.8 44.5c0.9-0.6 1.3-1.8 1-2.8l-2.4-7.3c-0.3-1.1-1.3-1.7-2.4-1.7l-6.6 0.2-2.4-3.3 2.2-6.2c0.4-1 0-2.2-0.9-2.9l-6.2-4.5c-0.9-0.7-2.1-0.6-3 0l-5.2 4-3.8-1.2-1.9-6.3c-0.3-1.1-1.3-1.8-2.4-1.8h-7.7c-1.1 0-2.1 0.7-2.4 1.8l-1.9 6.3-3.8 1.2-5.2-4c-0.9-0.7-2.1-0.7-3 0l-6.2 4.5c-0.9 0.7-1.3 1.8-0.9 2.9l2.2 6.2-2.3 3.2-6.6-0.2c-1.1 0-2.1 0.7-2.4 1.7l-2.4 7.3c-0.3 1.1 0 2.2 1 2.8l5.4 3.7v4l-5.4 3.9c-0.9 0.6-1.3 1.8-1 2.8l2.4 7.3c0.3 1.1 1.3 1.7 2.4 1.7l6.6-0.2 2.3 3.2-2.2 6.2c-0.4 1 0 2.2 0.9 2.9l6.2 4.5c0.9 0.7 2.1 0.6 3 0l5.2-4 3.8 1.2 1.9 6.3c0.3 1.1 1.3 1.8 2.4 1.8h7.7c1.1 0 2.1-0.7 2.4-1.8l1.9-6.3 3.8-1.2 5.2 4c0.9 0.7 2.1 0.7 3 0l6.2-4.5c0.9-0.7 1.3-1.8 0.9-2.9l-2.2-6.2 2.3-3.2 6.6 0.2c1.1 0 2.1-0.7 2.4-1.7l2.4-7.3c0.3-1.1 0-2.2-1-2.8l-5.4-3.7v-4zm-9.4 11.1 5 3.4-1.2 3.7-6-0.2c-0.8 0-1.6 0.4-2.1 1l-3.9 5.5c-0.5 0.7-0.6 1.5-0.3 2.3l2 5.7-3.2 2.3-4.8-3.7c-0.7-0.5-1.5-0.7-2.3-0.4l-6.3 2c-0.8 0.3-1.4 0.9-1.6 1.7l-1.7 5.8h-4l-1.7-5.8c-0.2-0.8-0.8-1.4-1.6-1.7l-6.3-2c-0.8-0.3-1.6-0.1-2.3 0.4l-4.8 3.7-3.2-2.3 2-5.7c0.3-0.8 0.2-1.6-0.3-2.3l-3.8-5.4c-0.5-0.7-1.2-1.1-2.1-1l-6 0.2-1.3-3.8 5-3.4c0.7-0.5 1.1-1.2 1.1-2.1v-6.6c0-0.8-0.4-1.6-1.1-2.1l-5-3.4 1.2-3.7 6 0.2c0.8 0 1.6-0.4 2.1-1l3.9-5.3c0.5-0.7 0.6-1.5 0.3-2.3l-2-5.7 3.2-2.3 4.8 3.7c0.7 0.5 1.5 0.7 2.3 0.4l6.3-2c0.8-0.3 1.4-0.9 1.6-1.7l1.7-5.8h4l1.7 5.8c0.2 0.8 0.8 1.4 1.6 1.7l6.3 2c0.8 0.3 1.6 0.1 2.3-0.4l4.8-3.7 3.2 2.3-2 5.7c-0.3 0.8-0.2 1.6 0.3 2.3l3.9 5.3c0.5 0.7 1.3 1 2.1 1l6-0.2 1.2 3.7-5 3.4c-0.7 0.5-1.1 1.2-1.1 2.1v6.6c0 0.9 0.4 1.6 1.1 2.1z" />
            <path d="m50 28.8c-11.7 0-21.3 9.5-21.3 21.3s9.6 21.2 21.3 21.2 21.3-9.6 21.3-21.3-9.6-21.2-21.3-21.2zm0 40c-10.3 0-18.8-8.4-18.8-18.8s8.5-18.7 18.8-18.7 18.8 8.4 18.8 18.7-8.5 18.8-18.8 18.8z" />
            <path d="m50 41.3c-4.8 0-8.8 3.9-8.8 8.8s3.9 8.8 8.8 8.8 8.8-3.9 8.8-8.8-4-8.8-8.8-8.8zm0 15c-3.4 0-6.3-2.8-6.3-6.3s2.8-6.3 6.3-6.3 6.3 2.8 6.3 6.3-2.9 6.3-6.3 6.3z" />
        </g>
    </g>
    <g>
        <g transform="matrix(.068865 -.020997 .020997 .068865 18.916 8.9188)" fill="#3799c8" featurekey="symbolFeature-0">
            <g fill="#3799c8">
                <path d="m87.8 44.5c0.9-0.6 1.3-1.8 1-2.8l-2.4-7.3c-0.3-1.1-1.3-1.7-2.4-1.7l-6.6 0.2-2.4-3.3 2.2-6.2c0.4-1 0-2.2-0.9-2.9l-6.2-4.5c-0.9-0.7-2.1-0.6-3 0l-5.2 4-3.8-1.2-1.9-6.3c-0.3-1.1-1.3-1.8-2.4-1.8h-7.7c-1.1 0-2.1 0.7-2.4 1.8l-1.9 6.3-3.8 1.2-5.2-4c-0.9-0.7-2.1-0.7-3 0l-6.2 4.5c-0.9 0.7-1.3 1.8-0.9 2.9l2.2 6.2-2.3 3.2-6.6-0.2c-1.1 0-2.1 0.7-2.4 1.7l-2.4 7.3c-0.3 1.1 0 2.2 1 2.8l5.4 3.7v4l-5.4 3.9c-0.9 0.6-1.3 1.8-1 2.8l2.4 7.3c0.3 1.1 1.3 1.7 2.4 1.7l6.6-0.2 2.3 3.2-2.2 6.2c-0.4 1 0 2.2 0.9 2.9l6.2 4.5c0.9 0.7 2.1 0.6 3 0l5.2-4 3.8 1.2 1.9 6.3c0.3 1.1 1.3 1.8 2.4 1.8h7.7c1.1 0 2.1-0.7 2.4-1.8l1.9-6.3 3.8-1.2 5.2 4c0.9 0.7 2.1 0.7 3 0l6.2-4.5c0.9-0.7 1.3-1.8 0.9-2.9l-2.2-6.2 2.3-3.2 6.6 0.2c1.1 0 2.1-0.7 2.4-1.7l2.4-7.3c0.3-1.1 0-2.2-1-2.8l-5.4-3.7v-4zm-9.4 11.1 5 3.4-1.2 3.7-6-0.2c-0.8 0-1.6 0.4-2.1 1l-3.9 5.5c-0.5 0.7-0.6 1.5-0.3 2.3l2 5.7-3.2 2.3-4.8-3.7c-0.7-0.5-1.5-0.7-2.3-0.4l-6.3 2c-0.8 0.3-1.4 0.9-1.6 1.7l-1.7 5.8h-4l-1.7-5.8c-0.2-0.8-0.8-1.4-1.6-1.7l-6.3-2c-0.8-0.3-1.6-0.1-2.3 0.4l-4.8 3.7-3.2-2.3 2-5.7c0.3-0.8 0.2-1.6-0.3-2.3l-3.8-5.4c-0.5-0.7-1.2-1.1-2.1-1l-6 0.2-1.3-3.8 5-3.4c0.7-0.5 1.1-1.2 1.1-2.1v-6.6c0-0.8-0.4-1.6-1.1-2.1l-5-3.4 1.2-3.7 6 0.2c0.8 0 1.6-0.4 2.1-1l3.9-5.3c0.5-0.7 0.6-1.5 0.3-2.3l-2-5.7 3.2-2.3 4.8 3.7c0.7 0.5 1.5 0.7 2.3 0.4l6.3-2c0.8-0.3 1.4-0.9 1.6-1.7l1.7-5.8h4l1.7 5.8c0.2 0.8 0.8 1.4 1.6 1.7l6.3 2c0.8 0.3 1.6 0.1 2.3-0.4l4.8-3.7 3.2 2.3-2 5.7c-0.3 0.8-0.2 1.6 0.3 2.3l3.9 5.3c0.5 0.7 1.3 1 2.1 1l6-0.2 1.2 3.7-5 3.4c-0.7 0.5-1.1 1.2-1.1 2.1v6.6c0 0.9 0.4 1.6 1.1 2.1z" />
                <path d="m50 28.8c-11.7 0-21.3 9.5-21.3 21.3s9.6 21.2 21.3 21.2 21.3-9.6 21.3-21.3-9.6-21.2-21.3-21.2zm0 40c-10.3 0-18.8-8.4-18.8-18.8s8.5-18.7 18.8-18.7 18.8 8.4 18.8 18.7-8.5 18.8-18.8 18.8z" />
                <path d="m50 41.3c-4.8 0-8.8 3.9-8.8 8.8s3.9 8.8 8.8 8.8 8.8-3.9 8.8-8.8-4-8.8-8.8-8.8zm0 15c-3.4 0-6.3-2.8-6.3-6.3s2.8-6.3 6.3-6.3 6.3 2.8 6.3 6.3-2.9 6.3-6.3 6.3z" />
            </g>
        </g>
        <g stroke-width=".02343">
            <path d="m24.463 7.9006c-0.10053-0.15431-0.14921-0.20862-0.19732-0.22015-0.06678-0.015997-0.48981-0.026426-0.57508-0.014178-0.03009 0.00432-0.11056 0.086609-0.20657 0.21127l-0.15728 0.20419-0.12475-0.037959c-0.1185-0.036058-0.12447-0.041625-0.11931-0.1112 0.0139-0.18756 0.01253-0.40972-0.0028-0.44673-0.02282-0.055187-0.4346-0.3795-0.50067-0.39432-0.03249-0.00729-0.1381 0.017876-0.27564 0.065635-0.12263 0.042596-0.2254 0.077834-0.22837 0.078296-3e-3 4.737e-4 -0.04046-0.049137-0.08332-0.11023l-0.07789-0.11109 0.14504-0.17456c0.07977-0.096006 0.15092-0.20079 0.15811-0.23285 0.01852-0.082567-0.14434-0.59446-0.20519-0.64495-0.02527-0.020962-0.14002-0.066763-0.255-0.10177l-0.20906-0.063653-3e-3 -0.12112c-0.0017-0.066613 0.0011-0.12661 0.0061-0.13332 5e-3 -0.00671 0.1046-0.038823 0.22127-0.071369s0.23288-0.074696 0.25824-0.093666c0.04361-0.03263 0.23729-0.54679 0.22865-0.60698-0.0022-0.015433-0.06743-0.11844-0.1449-0.22892l-0.14086-0.20087 0.15276-0.20915 0.23407 0.082942c0.12874 0.045619 0.24803 0.080938 0.26509 0.078487 0.06292-0.00904 0.5093-0.33217 0.52732-0.38172 0.01025-0.028177 0.01811-0.15262 0.01747-0.27653-6.35e-4 -0.12392 0.0025-0.2298 0.0069-0.23529 0.0045-0.00548 0.06166-0.025186 0.12712-0.043759l0.11902-0.033778 0.13915 0.20531c0.10347 0.15268 0.15571 0.20935 0.20376 0.22107 0.06953 0.016957 0.47992 0.027596 0.57019 0.014787 0.03709-0.00526 0.1058-0.073916 0.21213-0.21197l0.15728-0.20419 0.12246 0.037262c0.10859 0.033038 0.12218 0.044287 0.1199 0.099277-0.01737 0.42072-0.01755 0.41667 0.02271 0.48358 0.0219 0.036393 0.13631 0.13486 0.25425 0.21881 0.2412 0.1717 0.23903 0.1714 0.5268 0.072275 0.09723-0.033494 0.18443-0.061997 0.19378-0.06334 0.0093-0.00134 0.05049 0.045297 0.09143 0.10366l0.07442 0.1061-0.13902 0.16947c-0.07645 0.093206-0.14703 0.19725-0.15682 0.2312-0.01386 0.048056 0.0015 0.12357 0.06911 0.34081 0.0478 0.15349 0.1027 0.29337 0.12202 0.31083 0.01931 0.017463 0.13394 0.060915 0.25474 0.096556l0.21964 0.064802 6.8e-4 0.10516c4.27e-4 0.057833 0.0024 0.11744 0.0046 0.13245 0.0025 0.01729-0.0796 0.049458-0.224 0.087788-0.12536 0.033273-0.24544 0.075283-0.26685 0.093354-0.03867 0.03263-0.22944 0.57192-0.22161 0.62645 0.0023 0.015666 0.06735 0.11768 0.14467 0.2267l0.14058 0.19821-0.15376 0.2105-0.23444-0.083403c-0.12894-0.045873-0.24804-0.08145-0.26467-0.079061-0.01663 0.00239-0.13885 0.07848-0.2716 0.16909-0.27747 0.18938-0.28815 0.20906-0.27332 0.50355 0.0049 0.098358 0.0038 0.19064-0.0025 0.20507-0.0063 0.014434-0.06798 0.041032-0.13698 0.059097l-0.12546 0.032862zm0.13378-0.78164c0.41126-0.16372 0.73947-0.51914 0.87895-0.9518 0.08548-0.26516 0.09634-0.47348 0.04008-0.76857-0.07989-0.41901-0.27207-0.71371-0.62967-0.96556-0.83307-0.58671-2.0231-0.18888-2.339 0.7819-0.07893 0.2426-0.09553 0.44593-0.05769 0.70657 0.06182 0.42542 0.24613 0.73807 0.58639 0.99442 0.11711 0.08823 0.27677 0.18471 0.3548 0.21441 0.3807 0.14488 0.78353 0.14095 1.1661-0.011364z" fill="#afc6e9" />
            <path d="m23.424 12.652c-0.54088-0.0043-1.0467-0.33878-1.2521-0.82805-0.07043-0.16776-0.11329-0.46615-0.09293-0.64695 0.06774-0.60154 0.53471-1.0872 1.1321-1.1773 0.73342-0.1107 1.4158 0.39443 1.5226 1.1271 0.09781 0.67109-0.36782 1.3394-1.0398 1.4923-0.08194 0.01864-0.20335 0.03345-0.26979 0.03299zm0.34384-0.79232c0.21412-0.15334 0.3072-0.37242 0.26983-0.63517-0.03763-0.26463-0.17438-0.4273-0.4389-0.52211-0.15615-0.05597-0.41335-0.01359-0.56042 0.09235-0.46466 0.33471-0.29127 1.0652 0.27655 1.1651 0.09628 0.01693 0.3757-0.04487 0.45294-0.10016z" fill="#afc6e9" />
            <path d="m23.886 13.546c-0.06385-0.10142-0.14105-0.20162-0.17156-0.22265-0.03838-0.02646-0.12941-0.03924-0.29546-0.04145-0.38468-0.0051-0.3715-0.01046-0.54358 0.21935l-0.15014 0.20051-0.11789-0.03587c-0.06484-0.01973-0.11953-0.04712-0.12153-0.06089-2e-3 -0.01376 1e-6 -0.11886 0.0045-0.23354 0.0045-0.11469-0.0015-0.23211-0.01334-0.26093-0.01182-0.02881-0.12668-0.13481-0.25529-0.23554-0.2636-0.20645-0.24286-0.20294-0.54644-0.09256l-0.19698 0.07163-0.1613-0.2186 0.1551-0.19733c0.13364-0.17004 0.15354-0.20818 0.14385-0.27569-0.02024-0.14091-0.14748-0.51856-0.19173-0.56906-0.02468-0.02817-0.13793-0.07707-0.26384-0.11393l-0.22059-0.06457 0.0013-0.08507c0.0031-0.19913-0.01126-0.18255 0.20011-0.2311 0.28241-0.06487 0.31728-0.09724 0.4234-0.39308 0.04923-0.13726 0.08534-0.27984 0.08023-0.31684-0.0051-0.03701-0.07017-0.14875-0.14458-0.24833l-0.13529-0.18105 0.15956-0.21309 0.21266 0.07918c0.12392 0.04614 0.2428 0.07485 0.28489 0.0688 0.09312-0.01338 0.49262-0.29061 0.52675-0.36554 0.01429-0.03139 0.02397-0.15936 0.0215-0.28437l-0.0045-0.22729 0.26053-0.08126 0.13137 0.20372c0.15482 0.24008 0.16278 0.24376 0.53641 0.24729 0.30328 0.0029 0.30363 0.0027 0.47618-0.24849l0.12365-0.17999 0.12276 0.04156c0.06752 0.02285 0.12485 0.05611 0.12741 0.07391 0.0026 0.0178 7.38e-4 0.11641-4e-3 0.21913-0.01327 0.28586-0.01687 0.27837 0.2226 0.46226 0.28455 0.2185 0.30273 0.22236 0.58207 0.1237l0.22245-0.07857 0.06915 0.1054 0.06916 0.1054-0.15255 0.20498c-0.11881 0.15964-0.15045 0.21965-0.14303 0.27128 0.01799 0.12523 0.15044 0.52514 0.18858 0.56945 0.021 0.02438 0.13917 0.07568 0.26261 0.11399l0.22443 0.06966-8.33e-4 0.09695c-0.0014 0.16545-7e-3 0.17069-0.2453 0.23123-0.11958 0.03037-0.23233 0.07171-0.25055 0.09186-0.04561 0.05043-0.21384 0.56135-0.20502 0.62271 0.0039 0.02737 0.06937 0.1355 0.14544 0.24028l0.13829 0.19052-0.07599 0.10404-0.07599 0.10404-0.2295-0.08423c-0.12623-0.04632-0.2512-0.08112-0.27771-0.07731-0.02651 0.0038-0.1543 0.08057-0.28397 0.17058-0.2692 0.18686-0.26773 0.18404-0.26457 0.50767 0.0011 0.11473-0.0093 0.21396-0.02314 0.22051-0.01385 0.0065-0.0723 0.02521-0.12989 0.04148l-0.10471 0.02957zm0.1174-0.81114c0.47948-0.19881 0.81966-0.62214 0.92271-1.1482 0.03568-0.18216 0.03649-0.24363 0.0061-0.46524-0.04151-0.30236-0.09223-0.43841-0.25477-0.68278-0.1574-0.23663-0.46484-0.47504-0.73254-0.56805-0.34845-0.12107-0.79368-0.11572-1.1068 0.01329-0.41236 0.16988-0.7621 0.54256-0.88833 0.94658-0.15435 0.49405-0.08936 0.94932 0.195 1.366 0.25782 0.3778 0.75684 0.65238 1.2045 0.66276 0.17059 4e-3 0.49226-0.05716 0.65416-0.12429z" fill="#d7f4ee" />
            <path d="m23.915 7.0316c-0.082556-0.0067304-0.22504-0.037802-0.31664-0.069034-0.84962-0.28972-1.1882-1.2494-0.70379-1.9951 0.11107-0.17101 0.2926-0.33782 0.48356-0.44435 0.19728-0.11006 0.53865-0.17867 0.76255-0.15327 0.55454 0.062917 0.99012 0.42622 1.1576 0.9655 0.07807 0.25139 0.05635 0.60022-0.05435 0.87306-0.06196 0.15271-0.26122 0.41758-0.39256 0.52182-0.2676 0.21237-0.62348 0.32693-0.93634 0.30141zm0.43828-0.78288c0.12929-0.082938 0.21586-0.19171 0.26616-0.33442 0.03713-0.10534 0.04063-0.15806 0.02001-0.30159-0.03967-0.2762-0.19341-0.45564-0.45359-0.52945-0.32026-0.090854-0.67213 0.092969-0.78883 0.41203-0.04852 0.13268-0.0072 0.45777 0.07153 0.56342 0.08993 0.1206 0.2216 0.21683 0.34951 0.25543 0.15821 0.047753 0.40599 0.017464 0.5352-0.065422z" fill="#d7f4ee" />
        </g>
    </g>
    <g transform="matrix(.0962 -.013818 .013818 .0962 12.849 3.9522)" fill="#3771c8">
        <path d="m87.8 44.5c0.9-0.6 1.3-1.8 1-2.8l-2.4-7.3c-0.3-1.1-1.3-1.7-2.4-1.7l-6.6 0.2-2.4-3.3 2.2-6.2c0.4-1 0-2.2-0.9-2.9l-6.2-4.5c-0.9-0.7-2.1-0.6-3 0l-5.2 4-3.8-1.2-1.9-6.3c-0.3-1.1-1.3-1.8-2.4-1.8h-7.7c-1.1 0-2.1 0.7-2.4 1.8l-1.9 6.3-3.8 1.2-5.2-4c-0.9-0.7-2.1-0.7-3 0l-6.2 4.5c-0.9 0.7-1.3 1.8-0.9 2.9l2.2 6.2-2.3 3.2-6.6-0.2c-1.1 0-2.1 0.7-2.4 1.7l-2.4 7.3c-0.3 1.1 0 2.2 1 2.8l5.4 3.7v4l-5.4 3.9c-0.9 0.6-1.3 1.8-1 2.8l2.4 7.3c0.3 1.1 1.3 1.7 2.4 1.7l6.6-0.2 2.3 3.2-2.2 6.2c-0.4 1 0 2.2 0.9 2.9l6.2 4.5c0.9 0.7 2.1 0.6 3 0l5.2-4 3.8 1.2 1.9 6.3c0.3 1.1 1.3 1.8 2.4 1.8h7.7c1.1 0 2.1-0.7 2.4-1.8l1.9-6.3 3.8-1.2 5.2 4c0.9 0.7 2.1 0.7 3 0l6.2-4.5c0.9-0.7 1.3-1.8 0.9-2.9l-2.2-6.2 2.3-3.2 6.6 0.2c1.1 0 2.1-0.7 2.4-1.7l2.4-7.3c0.3-1.1 0-2.2-1-2.8l-5.4-3.7v-4zm-9.4 11.1 5 3.4-1.2 3.7-6-0.2c-0.8 0-1.6 0.4-2.1 1l-3.9 5.5c-0.5 0.7-0.6 1.5-0.3 2.3l2 5.7-3.2 2.3-4.8-3.7c-0.7-0.5-1.5-0.7-2.3-0.4l-6.3 2c-0.8 0.3-1.4 0.9-1.6 1.7l-1.7 5.8h-4l-1.7-5.8c-0.2-0.8-0.8-1.4-1.6-1.7l-6.3-2c-0.8-0.3-1.6-0.1-2.3 0.4l-4.8 3.7-3.2-2.3 2-5.7c0.3-0.8 0.2-1.6-0.3-2.3l-3.8-5.4c-0.5-0.7-1.2-1.1-2.1-1l-6 0.2-1.3-3.8 5-3.4c0.7-0.5 1.1-1.2 1.1-2.1v-6.6c0-0.8-0.4-1.6-1.1-2.1l-5-3.4 1.2-3.7 6 0.2c0.8 0 1.6-0.4 2.1-1l3.9-5.3c0.5-0.7 0.6-1.5 0.3-2.3l-2-5.7 3.2-2.3 4.8 3.7c0.7 0.5 1.5 0.7 2.3 0.4l6.3-2c0.8-0.3 1.4-0.9 1.6-1.7l1.7-5.8h4l1.7 5.8c0.2 0.8 0.8 1.4 1.6 1.7l6.3 2c0.8 0.3 1.6 0.1 2.3-0.4l4.8-3.7 3.2 2.3-2 5.7c-0.3 0.8-0.2 1.6 0.3 2.3l3.9 5.3c0.5 0.7 1.3 1 2.1 1l6-0.2 1.2 3.7-5 3.4c-0.7 0.5-1.1 1.2-1.1 2.1v6.6c0 0.9 0.4 1.6 1.1 2.1z" />
        <path d="m50 28.8c-11.7 0-21.3 9.5-21.3 21.3s9.6 21.2 21.3 21.2 21.3-9.6 21.3-21.3-9.6-21.2-21.3-21.2zm0 40c-10.3 0-18.8-8.4-18.8-18.8s8.5-18.7 18.8-18.7 18.8 8.4 18.8 18.7-8.5 18.8-18.8 18.8z" />
        <path d="m50 41.3c-4.8 0-8.8 3.9-8.8 8.8s3.9 8.8 8.8 8.8 8.8-3.9 8.8-8.8-4-8.8-8.8-8.8zm0 15c-3.4 0-6.3-2.8-6.3-6.3s2.8-6.3 6.3-6.3 6.3 2.8 6.3 6.3-2.9 6.3-6.3 6.3z" />
    </g>
    <g stroke-width=".035369">
        <path d="m8.0631 8.542a0.15951 0.15951 0 0 1 0.01096-0.07569c0.02865-0.05093 0.10363-0.03714 0.16022-0.02264 0.22778 0.0573 0.46758 0.0053 0.70172 0.01874 0.23414 0.01344 0.49835 0.13051 0.54539 0.36041a1.7066 1.7066 0 0 0 0.43256-0.44459c0.06508-0.09727 0.12167-0.20868 0.11283-0.3254-0.01273-0.16836-0.15386-0.29427-0.28472-0.40109l-0.38906-0.31832a0.58394 0.58394 0 0 0-0.17472-0.11106c-0.08984-0.03077-0.18816-0.01627-0.28295-0.01627-0.28295 0-0.58606-0.12874-0.8386 0-0.10611 0.05412-0.18463 0.14678-0.26102 0.23733l-0.34803 0.41205a0.21681 0.21681 0 0 0-0.05553 0.09444c-0.0099 0.05022 0.01592 0.09974 0.02476 0.15032 0.01662 0.09196-0.02334 0.18993 0.0074 0.27836 0.05058 0.14678 0.22848 0.16765 0.33742 0.25147 0.04068 0.03148 0.10434 0.13759 0.15244 0.13652 0.0863-0.0011 0.14643-0.15704 0.1489-0.22459z" fill="#483e37" />
        <path d="m8.1204 9.526c-0.0039 0.1146-0.07074 0.21646-0.13511 0.3116-0.08595 0.12662-0.17685 0.25819-0.31266 0.32893a3.0042 3.0042 0 0 0 2.2205 0.23414c0.11919-0.03537 0.25996-0.10894 0.25289-0.23308-0.14148-0.03855-0.2879-0.07852-0.40816-0.16376-0.1436-0.10186-0.23839-0.26032-0.29958-0.42443-0.06119-0.16411-0.09231-0.33954-0.13511-0.51038a0.096204 0.096204 0 0 0-0.02193-0.0474 0.097619 0.097619 0 0 0-0.0672-0.01768l-0.47112-0.0085c-0.19347 0-0.40356-0.0046-0.58324 0.07746-0.22353 0.10257-0.03289 0.26279-0.03926 0.45308z" fill="#ffc0c6" />
        <path d="m8.1204 9.526c-0.0039 0.1146-0.07074 0.21646-0.13511 0.3116-0.08595 0.12662-0.17685 0.25819-0.31266 0.32893a3.0042 3.0042 0 0 0 2.2205 0.23414c0.11919-0.03537 0.25996-0.10894 0.25289-0.23308-0.14148-0.03855-0.2879-0.07852-0.40816-0.16376-0.1436-0.10186-0.23839-0.26032-0.29958-0.42443-0.06119-0.16411-0.09231-0.33954-0.13511-0.51038a0.096204 0.096204 0 0 0-0.02193-0.0474 0.097619 0.097619 0 0 0-0.0672-0.01768l-0.47112-0.0085c-0.19347 0-0.40356-0.0046-0.58324 0.07746-0.22353 0.10257-0.03289 0.26279-0.03926 0.45308z" opacity=".1" />
        <path d="m7.7105 25.663c-0.11601 0.17684-0.26774 0.32646-0.39507 0.49517-0.12733 0.16871-0.23379 0.36536-0.2352 0.57652a0.091252 0.091252 0 0 0 0.0244 0.07428 0.095496 0.095496 0 0 0 0.04846 0.01521l0.49163 0.06296a0.82375 0.82375 0 0 0 0.22636 0.0078 0.80288 0.80288 0 0 0 0.23202-0.08453 0.32009 0.32009 0 0 0 0.13935-0.10611c0.0237-0.03891 0.03006-0.08665 0.0527-0.12627 0.06826-0.1199 0.24016-0.1146 0.37668-0.09373 0.03926-0.36466-0.06154-0.72825-0.16164-1.0812a0.14148 0.14148 0 0 0-0.02723-0.05942 0.14148 0.14148 0 0 0-0.06402-0.03537c-0.11778-0.03855-0.4025-0.18958-0.50153-0.11884-0.07251 0.05235-0.1482 0.37986-0.20691 0.47359z" fill="#484537" />
        <path d="m10.081 26.382c0.09443-0.04421 0.19524-0.10116 0.2971-0.07781 0.1436 0.03219 0.20762 0.20196 0.32964 0.28295 0.07498 0.05058 0.16765 0.06543 0.25713 0.0771a5.9922 5.9922 0 0 0 0.83117 0.04916c0.08878 0 0.20054-0.02122 0.22212-0.10611 0.02157-0.08489-0.06013-0.15244-0.13263-0.19665a3.8906 3.8906 0 0 0-0.49092-0.25501 0.98432 0.98432 0 0 1-0.23414-0.1245c-0.12132-0.09797-0.18038-0.25147-0.2345-0.39755-0.0435-0.11742-0.08347-0.37102-0.1726-0.4598-0.09762-0.09585-0.22884-0.03219-0.35122-0.0053-0.19028 0.04173-0.41311 0.07074-0.53549 0.24157-0.17897 0.25006-0.31655 1.2178 0.21434 0.97194z" fill="#484537" />
        <path d="m7.2687 15.095a3.6055 3.6055 0 0 0-0.26385 1.257c-0.0085 0.32221 0.02617 0.64336 0.06119 0.96381q0.08383 0.77812 0.16836 1.5562a4.3904 4.3904 0 0 0 0.10151 0.64053c0.06119 0.2352 0.16058 0.4598 0.23167 0.69111 0.22 0.72082 0.15739 1.4982 0.01203 2.2378a1.118 1.118 0 0 0-0.03042 0.24758c0.0042 0.12485 0.05235 0.24369 0.08347 0.36466 0.19028 0.73744-0.24758 1.5562 0.0382 2.2636a0.11212 0.11212 0 0 0 0.04492 0.0619 0.11389 0.11389 0 0 0 0.08913-0.0039 1.2057 1.2057 0 0 0 0.23308-0.11035 1.4222 1.4222 0 0 0 0.57793 0.41842c0.16765-0.04138 0.19913-0.24511 0.25395-0.40887a2.7942 2.7942 0 0 0 0.10186-0.35617 2.8348 2.8348 0 0 0 0.03714-0.44848l0.14501-5.1055-0.01061 1.558a1.8392 1.8392 0 0 0 0.0237 0.37703c0.02122 0.10363 0.06013 0.20302 0.08241 0.30665 0.03148 0.1482 0.02759 0.3017 0.02617 0.45343a13.327 13.327 0 0 0 0.24582 2.6817c0.05659 0.28932 0.1245 0.58147 0.26916 0.83789a0.092313 0.092313 0 0 0 0.0527 0.05164c0.03077 0.0067 0.05907-0.01768 0.08241-0.03926a0.90156 0.90156 0 0 1 1.0353-0.11247c-0.03112-0.14997 0.11177-0.32434 0.0095-0.43822-0.02936-0.03289-0.07321-0.04881-0.10611-0.07746-0.06508-0.05553-0.08064-0.1489-0.08984-0.23414a5.4235 5.4235 0 0 1 0-1.1414c0.04987-0.4743 0.16199-0.95249 0.07923-1.4218-0.06013-0.3406-0.22212-0.67201-0.18993-1.0147 0.02122-0.2299 0.12804-0.44176 0.2016-0.66069 0.32115-0.95709 0-2.0238 0.23238-3.0064 0.05341-0.22566 0.13405-0.4697 0.03714-0.68015l0.14749-0.04492-0.3063-0.69925c-0.06508-0.1489-0.13299-0.30205-0.24758-0.41665-0.19241-0.19135-0.47996-0.24263-0.74841-0.28295l-2.1837-0.3406c-0.19347-0.03148-0.45449-0.10434-0.52771 0.07534z" fill="#3c354c" />
        <circle cx="8.6435" cy="8.5862" r=".9348" fill="#ffc0c6" />
        <path d="m8.1338 9.6993a0.21717 0.21717 0 0 0-0.15067-0.02653 0.25749 0.25749 0 0 0-0.07074 0.03855l-0.44211 0.30983a0.68368 0.68368 0 0 0-0.1673 0.14643c-0.07569 0.10292-0.08771 0.2398-0.07781 0.36713 0.02193 0.2872 0.13794 0.55812 0.2009 0.83895 0.06296 0.28083 0.06296 0.60128-0.11813 0.82622a0.43787 0.43787 0 0 0-0.0771 0.10929 0.31832 0.31832 0 0 0-0.0145 0.10611 2.8939 2.8939 0 0 0 0.0085 0.40321c0.01981 0.17296 0.07074 0.34096 0.09833 0.5125 0.04846 0.29215 0.03537 0.59172 0.07286 0.88423a0.14148 0.14148 0 0 0 0.14148 0.1535 4.1654 4.1654 0 0 0 0.66034 0.0435c0.25572 0 0.51108-0.01415 0.76645-0.02759l1.1622-0.06119a0.1146 0.1146 0 0 0 0.1291-0.11849c0.10186-0.4888 0.20443-0.98644 0.15633-1.483-0.03112-0.3208-0.1245-0.63169-0.21221-0.94152-0.07074-0.25112-0.13865-0.51462-0.08559-0.77034 0.03537-0.16871 0.12132-0.32469 0.1436-0.49517a0.58394 0.58394 0 0 0-0.15987-0.49163c-0.13016-0.12485-0.32009-0.17225-0.44989-0.29745a1.0232 1.0232 0 0 0-0.11601-0.11247 0.14501 0.14501 0 0 0-0.15244-0.01768 0.1963 0.1963 0 0 0-0.058 0.06473c-0.11318 0.17189-0.28295 0.4552-0.52169 0.41064-0.25819-0.04633-0.43858-0.26208-0.666-0.37173z" fill="#aef" />
        <path d="m10.47 16.019c-0.08276 0.0619-0.14431 0.17189-0.10611 0.26774a0.54009 0.54009 0 0 0 0.33106-0.04598c0.06614-0.03219 0.14855-0.07746 0.20585-0.03077a0.17437 0.17437 0 0 1 0.04209 0.06366 2.1511 2.1511 0 0 0 0.22424 0.37244c0.06296-0.02971 0.1291-0.06225 0.16694-0.12061a0.34909 0.34909 0 0 0 0.0435-0.1291 3.4308 3.4308 0 0 0 0.04916-0.34414c0.0074-0.08383 0.0088-0.17685-0.04846-0.2391-0.24582-0.26527-0.7042 0.05341-0.90828 0.20585z" fill="#ffc0c6" />
        <path d="m8.0047 8.1911a0.15845 0.15845 0 0 1 0.01096-0.07534c0.02865-0.05093 0.10363-0.03537 0.16022-0.02299 0.22778 0.05765 0.46758 0.0057 0.70172 0.0191 0.23414 0.01344 0.49835 0.13051 0.54539 0.36041a1.7122 1.7122 0 0 0 0.43292-0.44459c0.06508-0.09727 0.12167-0.20868 0.11283-0.3254-0.01273-0.16836-0.15386-0.29427-0.28472-0.40108l-0.38906-0.31832a0.58288 0.58288 0 0 0-0.17472-0.1107c-0.08984-0.03077-0.18816-0.01627-0.28295-0.01627-0.28295 0-0.58606-0.12874-0.8386 0-0.10611 0.05447-0.18463 0.14714-0.26138 0.23768l-0.34768 0.41205a0.21964 0.21964 0 0 0-0.05588 0.09408c-0.0099 0.05022 0.01592 0.10009 0.02511 0.15032 0.01627 0.09196-0.02334 0.19028 0.0071 0.27871 0.05058 0.14678 0.22884 0.1673 0.33777 0.25147 0.04068 0.03148 0.10399 0.13758 0.15244 0.13617 0.08595-0.0014 0.14607-0.15739 0.14855-0.2253z" fill="#483e37" />
        <path d="m10.313 10.087a0.72507 0.72507 0 0 1 0.57439 0.10611c0.26739 0.18321 0.37739 0.5178 0.47041 0.82834l0.20832 0.69642c0.09125 0.30524 0.18321 0.6133 0.20443 0.93127 0.01945 0.28896-0.02016 0.57828-0.05977 0.86513-0.05482 0.39719 0.07428 0.83259 0.07604 1.2333 0 0.4598-0.0028 0.94754-0.23697 1.344a0.22424 0.22424 0 0 0-0.14148-0.15103 0.65963 0.65963 0 0 0-0.21044-0.03537l-0.6225-0.03997a1.9195 1.9195 0 0 0 0.13652-0.28048c0.23874-0.6133 0.14714-1.2988 0.05199-1.9495a1.344 1.344 0 0 0-0.03537-0.18392 1.7536 1.7536 0 0 1-0.04209-0.71269 1.6623 1.6623 0 0 0 0.01096-0.32469 0.36289 0.36289 0 0 0-0.02865-0.13299 0.41806 0.41806 0 0 0-0.06862-0.09479l-0.12591-0.14148c-0.01026-0.42797-0.07746-0.85912-0.14395-1.2821a2.8794 2.8794 0 0 1-0.01733-0.67555z" fill="#aef" />
        <path d="m9.0902 11.977a3.0042 3.0042 0 0 1-1.1262-1.9075c-0.02051-0.13405-0.07392-0.30912-0.20938-0.30453a0.26704 0.26704 0 0 0-0.1153 0.04032l-0.49092 0.26314a0.18498 0.18498 0 0 0-0.08559 0.07074c-0.03218 0.06296 0.01344 0.13546 0.0527 0.19418 0.26421 0.39967 0.28295 0.90722 0.29356 1.3861 0.0032 0.14148 0.0042 0.29038-0.06402 0.41417-0.05553 0.10009-0.15209 0.17366-0.20302 0.27659-0.04775 0.09656-0.04987 0.20832-0.05129 0.3162-0.0099 0.76963-0.01981 1.5403 0.02051 2.3092 6e-3 0.11601 0.01521 0.23768 0.0771 0.33601 0.05765 0.0909 0.15279 0.14961 0.24475 0.20514l0.74452 0.4499c0.14148 0.08595 0.28861 0.17331 0.45237 0.2009 0.16376 0.02759 0.35086-0.0191 0.44494-0.15598 0.04563-0.06649 0.06579-0.14749 0.10964-0.21504 0.04386-0.06755 0.12768-0.12238 0.20231-0.09231 0.05305 0.02122 0.08206 0.07675 0.10611 0.12804 0.04739 0.09797 0.09691 0.19842 0.17437 0.27517 0.07746 0.07675 0.18958 0.12839 0.29604 0.10611 0.09196-0.02016 0.16376-0.08984 0.2299-0.15633 0.20443-0.20479 0.41099-0.4124 0.56131-0.66034a0.15916 0.15916 0 0 0 0.03183-0.1001 0.2016 0.2016 0 0 0-0.05482-0.09196c-0.09408-0.1153-0.13122-0.26633-0.15916-0.41276-0.27977-1.4714 0.1153-3.0007-0.10222-4.4827-0.02476-0.16977-0.07923-0.32575-0.20656-0.4407-0.12733-0.11495-0.28578-0.18816-0.44176-0.25961-0.05129-0.02334-0.11-0.04739-0.16234-0.02617-0.08665 0.03537-0.08701 0.15456-0.08064 0.24758a3.2437 3.2437 0 0 1-0.0283 0.5705l-0.07604 0.69995a1.3525 1.3525 0 0 1-0.05942 0.31478 1.2676 1.2676 0 0 1-0.32504 0.50118z" fill="#575a88" />
        <path d="m4.7536 6.416s-0.26987 0.21929-0.58854-0.35581c-0.31868-0.5751-1.8576-1.9573-1.8576-1.9573s-0.19913-0.18215 0.55742-0.48562c0.75654-0.30347 1.7897-1.4126 1.7897-1.4126s1.7239 1.5325 1.8926 2.2916c0.16871 0.75902-0.20054 0.88776-0.83436 1.291-0.63381 0.40321-0.95921 0.62886-0.95921 0.62886z" fill="#3f3d56" />
        <path d="m9.6943 13.756-4.3504-7.8403 0.36925-0.12839 4.2768 7.8063a0.16942 0.16942 0 0 1-0.07074 0.23131 0.16871 0.16871 0 0 1-0.22495-0.06897z" fill="#656380" />
        <path d="m7.9078 11.754c0.11389-0.24369-0.0028-0.52488-0.08064-0.78236a2.6435 2.6435 0 0 1-0.11-0.62957 0.4598 0.4598 0 0 1 0.02193-0.19913 0.17685 0.17685 0 0 1 0.15138-0.11566 0.72613 0.72613 0 0 1 0.11354 0.5171 1.7409 1.7409 0 0 1 0.20019-0.03926 0.37456 0.37456 0 0 1 0.4071 0.25855c0.11212 0.35935 0.15032 0.74275-6e-3 1.0788a2.0514 2.0514 0 0 1-0.17296 0.28472l-0.34096 0.498c-0.02334 0.03537-0.05199 0.07074-0.09302 0.07675-0.04103 6e-3 -0.08383-0.03113-0.11389-0.06543-0.10363-0.11707-0.28755-0.28755-0.26739-0.44883 0.02016-0.16128 0.22282-0.29038 0.29073-0.43362z" fill="#ffc0c6" />
        <path d="m7.1198 10.252c-0.34626-0.03926-0.74275 0.05447-0.92384 0.35369-0.0909 0.15103-0.11353 0.33212-0.12945 0.50755-0.02228 0.24582-0.03537 0.49234-0.04775 0.73851l-0.06685 1.2959c-0.0081 0.15492-0.01592 0.31019-0.01875 0.4651a1.048 1.048 0 0 0 0.03855 0.35935c0.0428 0.12556 0.12768 0.23167 0.21222 0.33494 0.08453 0.10328 0.19028 0.20974 0.31443 0.17968a0.34167 0.34167 0 0 0 0.13476-0.08312l0.28295-0.24475c0.19241-0.16517 0.38694-0.33282 0.53336-0.54009 0.07074-0.09974 0.12874-0.20762 0.20019-0.30665 0.21009-0.29144 0.53337-0.5125 0.64407-0.85416-0.10611-0.0057-0.26032-0.04067-0.30913-0.13476-0.02582-0.04987-0.02936-0.10929-0.05801-0.15704-0.0435-0.07286-0.14148-0.11247-0.15598-0.19594-0.278 0.22389-0.51073 0.48385-0.73285 0.76291l0.09019-0.35051a0.22283 0.22283 0 0 1 0.03997-0.0909 0.40073 0.40073 0 0 1 0.10611-0.06685c0.11-0.06649 0.15173-0.20408 0.17402-0.3307a2.3142 2.3142 0 0 0-0.32822-1.6422z" fill="#80e5ff" />
    </g>
    <path d="m40.664 22.408h-7.5737a0.22839 0.22839 0 0 1-0.22812-0.22812v-2.555a0.22839 0.22839 0 0 1 0.22812-0.22812h7.5737a0.22839 0.22839 0 0 1 0.22812 0.22812v2.555a0.22839 0.22839 0 0 1-0.22812 0.22812z" fill="#3f3d56" stroke-width=".045625" />
    <rect x="34.049" y="20.081" width="2.0075" height=".22812" fill="#fff" stroke-width=".045625" />
    <g fill="#6c63ff" stroke-width=".045625">
        <circle cx="38.702" cy="20.218" r=".13687" />
        <circle cx="39.158" cy="20.218" r=".13687" />
        <circle cx="39.615" cy="20.218" r=".13687" />
    </g>
    <path d="m40.664 25.647h-7.5737a0.22839 0.22839 0 0 1-0.22812-0.22812v-2.555a0.22839 0.22839 0 0 1 0.22812-0.22812h7.5737a0.22839 0.22839 0 0 1 0.22812 0.22812v2.555a0.22839 0.22839 0 0 1-0.22812 0.22812z" fill="#3f3d56" stroke-width=".045625" />
    <rect x="34.049" y="23.32" width="2.0075" height=".22812" fill="#fff" stroke-width=".045625" />
    <g fill="#6c63ff" stroke-width=".045625">
        <circle cx="38.702" cy="23.457" r=".13687" />
        <circle cx="39.158" cy="23.457" r=".13687" />
        <circle cx="39.615" cy="23.457" r=".13687" />
    </g>
    <path d="m40.664 28.886h-7.5737a0.22839 0.22839 0 0 1-0.22812-0.22812v-2.555a0.22839 0.22839 0 0 1 0.22812-0.22812h7.5737a0.22839 0.22839 0 0 1 0.22812 0.22812v2.555a0.22839 0.22839 0 0 1-0.22812 0.22812z" fill="#3f3d56" stroke-width=".045625" />
    <rect x="34.049" y="26.559" width="2.0075" height=".22812" fill="#fff" stroke-width=".045625" />
    <g fill="#6c63ff" stroke-width=".045625">
        <circle cx="38.702" cy="26.696" r=".13687" />
        <circle cx="39.158" cy="26.696" r=".13687" />
        <circle cx="39.615" cy="26.696" r=".13687" />
    </g>
    <g stroke-width=".058285">
        <path d="m30.98 20.672a0.39727 0.39727 0 0 1 0.24709-0.50085 0.387 0.387 0 0 1 0.06212-0.01497l0.21284-0.8733 0.55494 0.0018-0.31766 1.229a0.39591 0.39591 0 0 1-0.26538 0.40896 0.38936 0.38936 0 0 1-0.49394-0.25055z" fill="#9f616a" />
        <path d="m31.917 20.107-0.84992-0.05973 0.41164-2.4873-0.26195-2.7388 0.85916-0.35719 0.57295 3.0415-0.0015 0.0055z" fill="#2f2e41" />
        <path d="m25.345 19.816a0.39346 0.39346 0 0 1 0.38604-0.4005 0.3863 0.3863 0 0 1 0.06367 5e-3l0.46553-0.76578 0.52795 0.17336-0.6724 1.0721a0.3898 0.3898 0 0 1-0.77078-0.08411z" fill="#9f616a" />
    </g>
    <polygon transform="matrix(.058285 0 0 .058285 .62597 3.036)" points="457.62 421.83 469.07 421.83 469.07 452.17 461.31 452.17" fill="#9f616a" />
    <path d="m28.081 29.835-1.4578-5.5e-5v-0.01869a0.57564 0.57564 0 0 1 0.16622-0.40684 0.55981 0.55981 0 0 1 0.4012-0.16851h3.6e-5l0.89038 3.6e-5z" fill="#2f2e41" stroke-width=".058285" />
    <polygon transform="matrix(.058285 0 0 .058285 .62597 3.036)" points="511.74 421.83 523.19 421.83 523.19 452.17 515.43 452.17" fill="#9f616a" />
    <path d="m31.235 29.835-1.4578-5.5e-5v-0.01869a0.57564 0.57564 0 0 1 0.16622-0.40684 0.55981 0.55981 0 0 1 0.4012-0.16851h3.6e-5l0.89038 3.6e-5z" fill="#2f2e41" stroke-width=".058285" />
    <ellipse cx="30.69" cy="11.697" rx="1.0741" ry="1.0891" fill="#9f616a" stroke-width=".058285" />
    <g fill="#2f2e41" stroke-width=".058285">
        <path d="m30.327 11.637a0.72037 0.72037 0 0 1-0.88693-0.31895 0.74159 0.74159 0 0 1 0.22737-0.92594c0.28588-0.19399 0.71283-0.12978 0.98997 0.09521a0.95778 0.95778 0 0 1 1.118 0.23525c0.26754 0.31382 0.29679 0.81196 0.10182 1.1778a1.296 1.296 0 0 0 0.07406 1.1987c-0.08389-0.0035-0.26853-0.01922-0.49957-0.03943-0.06686-0.0059-0.09577-0.20497-0.16909-0.21138-0.06466-0.0056-0.17313 0.18146-0.24087 0.17566-0.50176-0.04299-1.0635-0.08666-1.3181-0.07812a14.081 14.081 0 0 1 0.60331-1.3088z" />
        <path d="m31.514 19.369s0.34909 0.36492 0.13594 2.2493l-0.14726 4.0013-0.26054 3.543-0.83827-0.05652-0.73632-8.1547-1.0308 2.984-0.55507 4.9333-0.80429-0.05652-0.13735-4.9059 0.35258-3.7914z" />
        <path d="m28.059 20.344c-0.42888 2.4e-5 -0.60161-0.05226-0.61424-0.05628l-0.01991-0.0064 0.0035-0.02085c0.0029-0.01713 0.29101-1.7206 0.68638-2.6149l0.27801-3.6269a0.47566 0.47566 0 0 1 0.39844-0.43691l0.0038 0.02397-0.0038-0.02397 0.70718-0.11257 0.43259-0.38624 1.0363 0.05811 0.09138 0.44449c0.12394 0.03513 0.94185 0.2893 1.0228 0.89794l1e-3 0.0076-0.0035 0.0068-1.4984 2.9228c0.12663 0.12672 1.1273 1.169 1.1952 2.5016l0.0016 0.03206-0.03085-0.0071c-0.0029-5.96e-4 -0.32311-0.06231-2.0071 0.22635-0.77881 0.13347-1.3201 0.1704-1.6805 0.1704z" />
        <path d="m26.398 19.798-0.61076-0.47692 1.3632-2.7655 1.2679-2.7104a0.20165 0.20165 0 0 1 0.37834 0.03345l0.31383 1.1544-0.98138 2.589z" />
    </g>
</svg>