<?xml version="1.0" encoding="UTF-8"?>
<svg width="807.06" height="517.12" data-name="Layer 1" version="1.1" viewBox="0 0 807.06 517.12" xmlns="http://www.w3.org/2000/svg" xmlns:cc="http://creativecommons.org/ns#" xmlns:dc="http://purl.org/dc/elements/1.1/" xmlns:rdf="http://www.w3.org/1999/02/22-rdf-syntax-ns#">
    <metadata>
        <rdf:RDF>
            <cc:Work rdf:about="">
                <dc:format>image/svg+xml</dc:format>
                <dc:type rdf:resource="http://purl.org/dc/dcmitype/StillImage" />
                <dc:title />
            </cc:Work>
        </rdf:RDF>
    </metadata>
    <rect x=".34446" y=".45733" width="806.72" height="516.66" fill="#e6e6e6" />
    <rect x="15.468" y="48" width="776.47" height="456" fill="#fff" />
    <rect width="806.72" height="34.272" fill="#39adbf" />
    <g fill="#fff">
        <circle cx="25.468" cy="17.522" r="6.3521" />
        <circle cx="49.58" cy="17.522" r="6.3521" />
        <circle cx="73.691" cy="17.522" r="6.3521" />
    </g>
    <path transform="translate(-196.47 -191.44)" d="m454.49 367.59s2.9163 40.238 1.5869 42.604 23.349 44.87 23.349 44.87l39.454-36.976s-2.3892-51.148 0.15247-53.456-64.541 2.9571-64.541 2.9571z" fill="#ffb8b8" />
    <circle cx="291.57" cy="160.76" r="46.119" fill="#ffc3c3" />
    <path transform="translate(-196.47 -191.44)" d="m484.47 426.15-4.7318-2.6587-23.348-21.029s-2.3255-0.8674-2.6769 6.406l-0.3514 7.2734-15.074 10.207-0.69161 165.22 104.25 5.0367 4.3869-166.25-23.542-15.718-4.314-9.1962-26.519 18.642z" fill="#fff" />
    <path transform="translate(-196.47 -191.44)" d="m588.2 442.1-11.53 168.18h-174.1c-22.186-26.263-39.905-161.4-20.996-165.41 6.1774-2.136 48.061-15.292 48.061-15.292s12.513-7.9009 16.506-14.989a54.954 54.954 0 0 1 8.9325-11.518l0.0243-0.0243 0.01207-0.02422c0.09712-0.09711 0.18208-0.19423 0.2792-0.27919a0.16306 0.16306 0 0 1 0.085-0.07282c0.12134-0.13348 0.24267-0.25482 0.37623-0.37623v0.18208l-0.886 30.754 33.351 114.62s9.3937-68.802 18.933-90.211c5.3765-12.064 8.1922-26.955 9.6242-37.66 1.1045-8.2892 1.3836-14.054 1.3836-14.054s0.04852 0.06066 0.13348 0.16985v0.01215a0.0119 0.0119 0 0 0 0.01215 0.01215c0.14563 0.18208 0.37623 0.48549 0.71609 0.89809l0.01207 0.01215c2.7915 3.4953 11.748 14.078 17.816 14.37 7.2698 0.35194 27.234 14.685 27.234 14.685 9.7577-0.7525 24.018 6.0197 24.018 6.0197z" fill="#2f2e41" />
    <path transform="translate(-196.47 -191.44)" d="m532.17 570.62s13.136-45.538 32.297-39.752-1.8742 38.792-1.8742 38.792z" fill="#ffb8b8" />
    <path transform="translate(-196.47 -191.44)" d="m455.84 607.61s-42.829-20.295-34.034-38.275 37.984 8.0943 37.984 8.0943z" fill="#ffb8b8" />
    <path transform="translate(-196.47 -191.44)" d="m473 610.27h-10.28a104.29 104.29 0 0 0-12.549-2.3059c-0.97091-0.04852-1.2865-1.5656-1.1651-3.9687a75.456 75.456 0 0 1 1.954-11.785c1.4686-6.5538 3.4347-13.642 4.6968-18.156v-0.01215c0.74031-2.6336 1.2258-4.3813 1.238-4.6362 0.03637-0.801 6.7601 0.30341 11.396 1.153 2.4394 0.44905 4.2963 0.82528 4.2963 0.82528l0.2306 21.882z" fill="#fff" />
    <path transform="translate(-196.47 -191.44)" d="m610.2 590.19c-2.9613 8.3864-5.0974 15.025-6.845 20.086h-134.63c-0.449-4.6361-1.0195-10.984-1.3836-17.27-0.59468-10.061-0.69179-19.965 0.94669-22.44a1.1579 1.1579 0 0 1 0.72816-0.57038c3.1434-0.619 38.655-1.1773 63.802-1.505 3.4953-0.03637 6.7843-0.07282 9.7699-0.10919 9.066-0.10926 15.207-0.16993 15.207-0.16993s0.48542-16.603 1.9661-37.769c2.6093-37.211 8.3135-88.536 19.94-88.754l8.4956 0.41267s4.8425 0.2306 6.9178 7.6217 23.533 116.57 15.086 140.47z" fill="#2f2e41" />
    <path transform="translate(-196.47 -191.44)" d="m450.27 309-8.5869-3.6007s19.158-17.392 44.509-14.575l-6.8059-7.4968s17.788-5.5121 32.874 11.942c7.9302 9.1752 17.098 19.953 22.562 31.858l9.3604 0.45224-4.2842 7.6246 13.296 8.474-13.967-2.0815a39.473 39.473 0 0 1-2.3051 20.172l-3.6005 8.5868s-11.485-26.041-11.331-29.219l-0.3839 7.9458s-8.395-7.5735-8.1647-12.341l-5.0362 5.3317-1.9614-8.8556-29.822 7.3201 5.113-6.9209-18.391 1.5008 7.5737-8.395s-21.158 9.3315-22.375 18.034c-1.2168 8.702-12.084 19.327-12.084 19.327l-4.3837-8.1762s-5.4238-36.102 18.195-46.907z" fill="#2f2e41" />
    <path transform="translate(-196.47 -191.44)" d="m894.13 611.27h-607.93v-342.83h607.93zm-605.93-2h603.93v-338.83h-603.93z" fill="#e6e6e6" />
    <path transform="translate(-196.47 -191.44)" d="m776.27 310.95c-5.7483-9.7129-17.121-10.166-17.121-10.166s-11.082-1.4171-18.191 13.376c-6.6262 13.788-15.771 27.101-1.4723 30.329l2.5828-8.0388 1.5995 8.6373a55.948 55.948 0 0 0 6.118 0.10455c15.313-0.49439 29.896 0.14466 29.427-5.3503-0.62417-7.3047 2.5884-19.546-2.9426-28.892z" fill="#2f2e41" />
    <path transform="translate(-196.47 -191.44)" d="m755.07 344.04a6.0648 6.0648 0 0 1-0.52378 3.1954c-1.077 1.8816-3.7061 2.1632-5.2876 3.6462-1.6631 1.5596-1.8514 4.0907-1.9306 6.3692a17.606 17.606 0 0 0 0.71623 7.0621 17.168 17.168 0 0 0 2.0058 3.4459q1.4483 2.0877 2.9234 4.1567a17.946 17.946 0 0 0 1.7505 2.1967 14.908 14.908 0 0 0 6.589 3.4955 8.2357 8.2357 0 0 0 4.7874 0.317 9.1651 9.1651 0 0 0 2.784-1.7118 14.918 14.918 0 0 0 3.1512-3.0543 14.221 14.221 0 0 0 1.927-6.5131 140.55 140.55 0 0 0 0.92641-20.247 4.9622 4.9622 0 0 0-0.38654-2.1512c-0.80079-1.5636-2.9456-1.8975-4.0757-3.2425-0.96624-1.15-1.0056-2.7912-0.99739-4.2932l0.021-3.8237a1.6018 1.6018 0 0 0-0.18584-0.93157 1.5783 1.5783 0 0 0-1.0968-0.51173 36.976 36.976 0 0 0-7.1937-0.48128c-1.9522 0.05966-5.6978-0.10375-7.3858 0.98355-1.5322 0.98693 0.38621 3.7127 0.74111 5.2439a34.164 34.164 0 0 1 0.74096 6.8489z" fill="#a0616a" />
    <circle cx="563.08" cy="130.58" r="15.455" fill="#b77079" />
    <path transform="translate(-196.47 -191.44)" d="m750.73 350.45c-1.6701-0.9691-3.9376-0.18432-5.1538 1.3154a9.339 9.339 0 0 0-1.6957 5.4379 35.499 35.499 0 0 1-0.41311 5.7689c-0.92823 4.1699-4.3726 7.598-4.6288 11.862-0.252 4.1951 2.6247 7.8497 4.04 11.807a19.689 19.689 0 0 1 1.0548 7.6852 3.0826 3.0826 0 0 0 0.495 2.3983 2.7351 2.7351 0 0 0 1.0697 0.57634c6.8291 2.4026 14.205 2.6105 21.443 2.7938l11.953 0.30276a3.8099 3.8099 0 0 0 2.1108-0.35347c1.0724-0.65753 1.2159-2.1314 1.2342-3.3892 0.157-10.833-0.30376-21.664-0.76443-32.489a68.973 68.973 0 0 0-1.1687-11.707 3.3587 3.3587 0 0 0-1.4614-2.4953 3.2246 3.2246 0 0 0-2.4635 0.16452c-3.7049 1.3778-15.48 6.6587-16.641 4.779-1.3469-2.1813-9.6654-2.8249-9.0097-4.4575z" fill="#fff" />
    <g fill="#2f2e41">
        <path transform="translate(-196.47 -191.44)" d="m751.34 350.72c-0.304 0.21534-0.60379 0.44334-0.89093 0.684a17.248 17.248 0 0 0-2.8712 3.0232 23.95 23.95 0 0 0-3.2512 6.135 59.398 59.398 0 0 0-2.5925 11.966 28.88 28.88 0 0 0-0.40957 4.5094c0.08866 5.5566 3.3736 10.704 3.3779 16.264 0 0.21112-0.00423 0.418-0.01689 0.62912a18.265 18.265 0 0 1-0.32091 2.7107c-0.24067 1.3047-0.5869 2.5925-0.92891 3.8761a37.017 37.017 0 0 1-3.4708 9.3778c-0.16889 0.28711-0.35045 0.57-0.53623 0.84446h-11.823c0.09289-0.28289 0.19-0.56157 0.2829-0.84446q3.0211-8.9492 6.038-17.894c0.61645-1.824 1.2329-3.6565 1.6678-5.5312a52.389 52.389 0 0 0 1.0176-7.0217q0.69669-7.3405 0.91625-14.711a17.887 17.887 0 0 1 0.66291-5.2399 17.142 17.142 0 0 1 2.1027-3.8339q1.8304-2.7551 3.6608-5.5101a8.4648 8.4648 0 0 1 2.4405-2.7107c0.874-0.53624 1.9127-0.73045 2.8332-1.1822a14.484 14.484 0 0 0 1.6636-1.102c1.3765-0.97535 2.9936-2.0014 4.1801-1.0049a2.3282 2.3282 0 0 1 0.48979 0.56157 2.8264 2.8264 0 0 1 0.18155 0.32513c1.1399 2.4658-2.8713 4.5939-4.404 5.679z" />
        <path transform="translate(-196.47 -191.44)" d="m790.28 410.74h-54.755c0.29557-0.27023 0.58691-0.55312 0.8698-0.84446 0.04223-0.04222 0.08023-0.08445 0.12245-0.12667 2.0943-2.1745 2.5714-4.8472 3.6228-7.6762q1.1844-3.1984 2.3687-6.3926a3.3065 3.3065 0 0 1 0.60379-1.1358 1.8732 1.8732 0 0 1 0.8318-0.49824 3.2275 3.2275 0 0 1 0.73468-0.13511 8.1889 8.1889 0 0 1 1.0682 0q14.738 0.76 29.455 1.8536 1.9 0.1457 3.8001 0.29134c1.0345 0.76847 2.0563 1.5834 3.0316 2.4447a27.136 27.136 0 0 1 7.4946 9.9436c0.19 0.46867 0.36311 0.94579 0.50668 1.4314 0.09287 0.27869 0.17313 0.56158 0.24487 0.84449z" />
        <polygon points="577.26 118.57 566.03 112.69 550.51 115.09 547.3 129.27 555.3 128.97 557.53 123.76 557.53 128.88 561.22 128.74 563.36 120.44 564.69 129.27 577.8 129" />
        <path transform="translate(-196.47 -191.44)" d="m790.28 410.74h-12.363c-0.08866-0.27866-0.17312-0.56157-0.25334-0.84446a66.402 66.402 0 0 1-1.9169-9.5762c-0.13089-0.92469-0.24489-1.8536-0.35045-2.7783-0.06756-0.5869-0.13089-1.1696-0.19422-1.7565-0.70935-6.5193-1.254-13.102-3.247-19.342-0.24067-0.75579-0.50246-1.5074-0.7558-2.2589a26.641 26.641 0 0 1-1.0978-3.9732c-0.54046-3.0908-0.13512-6.2913-0.69247-9.3778-0.31245-1.7227-0.93313-3.2385-1.3089-4.8177a9.7572 9.7572 0 0 1-0.27868-2.9176 6.2836 6.2836 0 0 1 3.2892-1.6298 1.7334 1.7334 0 0 0 1.1654-0.46867 1.4626 1.4626 0 0 0 0.19422-0.86134 41.362 41.362 0 0 0-0.342-5.9577c-0.08446-0.69246-0.19-1.3849-0.31668-2.0732-0.00422-0.03378-0.01266-0.06334-0.01689-0.0971a8.1788 8.1788 0 0 1 3.3103-0.44757c1.2203 0.00423 2.4363 0.00423 3.6523 0.00846q3.3757 0.01267 6.7515 0.0211a14.865 14.865 0 0 1 6.1646 0.89091 9.8116 9.8116 0 0 1 4.4503 4.5601 26.247 26.247 0 0 1 2.0098 6.1519 8.2411 8.2411 0 0 1 0.21112 1.7776c0.09288 4.7543-3.4539 9.5424-3.8086 14.402-0.114 1.5749 0.01688 3.1625-0.12666 4.7374-0.14357 1.5792-0.5658 3.1245-0.6418 4.7037-0.00423 0.08022-0.00846 0.16467-0.00846 0.2449a16.93 16.93 0 0 0 1.2456 6.0084c1.0725 3.0105 2.3772 5.9281 3.7241 8.8289 1.3005 2.8079 2.6347 5.603 3.8339 8.4489a14.466 14.466 0 0 1 1.2456 4.1759 5.7947 5.7947 0 0 1-0.63757 3.3736 3.9589 3.9589 0 0 1-0.50246 0.71358l-0.00845 0.00845c-0.038 0.04221-0.076 0.08445-0.114 0.12244h-12.266z" />
    </g>
    <path transform="translate(-196.47 -191.44)" d="m802.06 406.41a4.6793 4.6793 0 0 1-0.45179 1.6172c-0.02111 0.05067-0.04221 0.09711-0.06335 0.14777-0.2449 0.57846-0.494 1.1485-0.75158 1.7227-0.12667 0.27866-0.25333 0.56157-0.38422 0.84446h-6.9922a7.8266 7.8266 0 0 0 0.7009-0.84446c1.0725-1.4905 1.6932-3.3019 2.7867-4.9106a3.7809 3.7809 0 0 1 0.51091-0.608c1.7523-1.6974 4.7543-1.3512 4.6446 2.0309z" fill="#a0616a" />
    <path transform="translate(-196.47 -191.44)" d="m806.61 410.74a8.2824 8.2824 0 0 0 0.2238-0.84446c0.05066-0.2238 0.09288-0.44334 0.12666-0.66714 0.2238-1.4736 0.21957-2.981 0.57-4.4292 0.494-2.0732 1.976-4.5263 0.75578-6.2701a6.625 6.625 0 0 0 2.6221-1.1738 2.2546 2.2546 0 0 0 0.70934-2.5925c-0.43491-0.84869-1.6129-1.4103-1.4525-2.3518a2.2436 2.2436 0 0 1 0.41378-0.81913 6.135 6.135 0 0 0-0.10556-6.7304c-0.38422-0.54889-0.85714-1.0302-1.2076-1.6045a9.5687 9.5687 0 0 1-0.874-2.2252 41.449 41.449 0 0 0-5.3328-11.054 7.3349 7.3349 0 0 1-1.178-2.1787 8.9946 8.9946 0 0 1-0.09288-2.5883 17.351 17.351 0 0 0-3.0274-9.6142c-0.13512-0.21112-0.27446-0.418-0.41378-0.6249a55.69 55.69 0 0 0-6.1646-7.1822 3.9531 3.9531 0 0 0-2.1703 1.5749 4.6805 4.6805 0 0 0-0.418 1.5707c-0.59956 4.1801-1.1189 8.3855-1.5242 12.587a30.768 30.768 0 0 0-0.16891 6.3842 10.306 10.306 0 0 0 2.3983 5.8184c0.89936 0.988 2.0394 1.7227 3.0148 2.6347q0.23433 0.22165 0.456 0.456a14.95 14.95 0 0 1 1.862 2.4447 21.078 21.078 0 0 1 3.0992 12.637 20.532 20.532 0 0 1-0.31667 2.3814 9.849 9.849 0 0 1-1.1231 3.209c-0.44334 0.73046-1.026 1.368-1.4271 2.1238a2.6857 2.6857 0 0 0-0.19424 2.4532 4.9956 4.9956 0 0 1 1.7438 0.31245 7.4016 7.4016 0 0 1 3.2934 2.5123 10.952 10.952 0 0 1 0.836 1.2836 15.81 15.81 0 0 1 0.836 1.7227c0.10133 0.23222 0.19844 0.4729 0.29134 0.71358a0.69962 0.69962 0 0 1 0.05067 0.13089z" fill="#2f2e41" />
    <path transform="translate(-196.47 -191.44)" d="m874 412.32h-218.66v-123.87h218.66zm-216.66-2h214.66v-119.87h-214.66z" fill="#e6e6e6" />
    <circle cx="403.37" cy="460.33" r="22.498" fill="#e6e6e6" />
    <circle cx="403.37" cy="460.33" r="17.248" fill="#fff" />
    <g fill="#39bfae">
        <path transform="translate(-196.47 -191.44)" d="m608.48 661.2a0.78172 0.78172 0 0 1-0.55534-0.23029l-17.284-17.284a0.78563 0.78563 0 0 1 1.1107-1.1107l17.284 17.284a0.78563 0.78563 0 0 1-0.55534 1.341z" />
        <path transform="translate(-196.47 -191.44)" d="M599.4475,654.70719l-2.543-2.543a.0982.0982,0,0,0-.16645.083,3.14791,3.14791,0,0,0,2.62645,2.62645.0982.0982,0,0,0,.083-.16645Z" />
        <path transform="translate(-196.47 -191.44)" d="M600.23313,648.82972l2.5469,2.54592a.0982.0982,0,0,0,.16694-.083,3.1489,3.1489,0,0,0-2.62939-2.6294.0982.0982,0,0,0-.08445.16646Z" />
        <path transform="translate(-196.47 -191.44)" d="m611.38 652.62a1.5811 1.5811 0 0 0-0.00491-1.7068 16.642 16.642 0 0 0-4.8743-4.9362 12.351 12.351 0 0 0-6.6754-2.0657 11.124 11.124 0 0 0-3.5265 0.57891 0.19641 0.19641 0 0 0-0.0766 0.32554l2.3196 2.3196a0.1964 0.1964 0 0 0 0.18757 0.05156 4.7138 4.7138 0 0 1 5.6958 5.6958 0.19642 0.19642 0 0 0 0.05156 0.18708l3.3365 3.3389a0.19639 0.19639 0 0 0 0.26514 0.01178 16.881 16.881 0 0 0 3.3016-3.8005z" />
        <path transform="translate(-196.47 -191.44)" d="m599.84 656.48a4.7138 4.7138 0 0 1-4.5812-5.8249 0.19643 0.19643 0 0 0-0.05156-0.18708l-3.282-3.2834a0.1964 0.1964 0 0 0-0.26564-0.0113 19.633 19.633 0 0 0-3.3227 3.718 1.5673 1.5673 0 0 0-0.03143 1.7451 16.4 16.4 0 0 0 4.8257 4.9421 12.168 12.168 0 0 0 6.693 2.0441 11.697 11.697 0 0 0 3.5667-0.56713 0.1964 0.1964 0 0 0 0.07906-0.326l-2.3309-2.3304a0.19641 0.19641 0 0 0-0.18708-0.05155 4.7136 4.7136 0 0 1-1.1121 0.13252z" />
    </g>
    <circle cx="318.01" cy="460.33" r="22.498" fill="#e6e6e6" />
    <circle cx="318.01" cy="460.33" r="17.248" fill="#fff" />
    <path transform="translate(-196.47 -191.44)" d="m521.11 662.77a9.252 9.252 0 0 1-4.321-1.473 28.094 28.094 0 0 1-6.7863-5.0761 25.753 25.753 0 0 1-5.0962-6.7844c-1.8089-3.2898-1.5006-5.0143-1.1559-5.7513a4.5909 4.5909 0 0 1 1.7996-1.9307 8.6565 8.6565 0 0 1 1.4063-0.74635c0.0491-0.02111 0.09477-0.04124 0.13552-0.05941a1.3142 1.3142 0 0 1 1.0778-0.0982 3.1568 3.1568 0 0 1 1.0243 0.78562 17.023 17.023 0 0 1 2.5611 3.8019 3.7874 3.7874 0 0 1 0.50231 1.557 2.4606 2.4606 0 0 1-0.626 1.4637c-0.06433 0.08789-0.12816 0.17185-0.19 0.25336-0.37366 0.491-0.45566 0.63292-0.40165 0.88629a9.3146 9.3146 0 0 0 2.268 3.364 8.9283 8.9283 0 0 0 3.3252 2.213c0.26417 0.05647 0.409-0.029 0.91575-0.41589 0.07267-0.05548 0.1473-0.11293 0.22537-0.17038a2.4739 2.4739 0 0 1 1.4858-0.66484h0.00295a3.558 3.558 0 0 1 1.5644 0.549 18.757 18.757 0 0 1 3.7877 2.5425 3.156 3.156 0 0 1 0.78808 1.0218 1.3245 1.3245 0 0 1-0.09821 1.0802c-0.01816 0.04076-0.0383 0.08544-0.05941 0.135a8.6663 8.6663 0 0 1-0.75076 1.4033 4.5917 4.5917 0 0 1-1.9336 1.7961 3.3102 3.3102 0 0 1-1.451 0.31761z" fill="#39bfae" />
    <circle cx="489.39" cy="460.33" r="22.498" fill="#e6e6e6" />
    <circle cx="489.39" cy="460.33" r="17.248" fill="#fff" />
    <g fill="#39bfae">
        <path transform="translate(-196.47 -191.44)" d="m689 661.99h-6.285a0.78563 0.78563 0 1 1 0-1.5712h6.285a0.78563 0.78563 0 1 1 0 1.5712z" />
        <path transform="translate(-196.47 -191.44)" d="m685.86 658.06a7.0787 7.0787 0 0 1-7.0706-7.0706v-1.5712a0.78563 0.78563 0 0 1 1.5712 0v1.5713a5.4994 5.4994 0 1 0 10.999 0v-1.5713a0.78563 0.78563 0 0 1 1.5712 0v1.5713a7.0787 7.0787 0 0 1-7.0706 7.0706z" />
        <path transform="translate(-196.47 -191.44)" d="M685.8621,661.98872a.78562.78562,0,0,1-.78563-.78562V657.275a.78563.78563,0,1,1,1.57125,0v3.92813A.7856.7856,0,0,1,685.8621,661.98872Z" />
        <path transform="translate(-196.47 -191.44)" d="m685.86 654.92a3.8707 3.8707 0 0 1-2.7767-1.1834 3.9719 3.9719 0 0 1-1.1514-2.7939v-5.4503a3.9129 3.9129 0 0 1 3.8976-3.9281q0.01526-6e-5 0.03051 0a3.8863 3.8863 0 0 1 3.9281 3.9281v5.4503a3.9576 3.9576 0 0 1-3.9281 3.9772z" />
    </g>
</svg>