<?xml version="1.0" encoding="UTF-8"?>
<svg width="872.7" height="590.18" data-name="Layer 1" version="1.1" viewBox="0 0 872.7 590.18" xmlns="http://www.w3.org/2000/svg" xmlns:cc="http://creativecommons.org/ns#" xmlns:dc="http://purl.org/dc/elements/1.1/" xmlns:rdf="http://www.w3.org/1999/02/22-rdf-syntax-ns#">
 <metadata>
  <rdf:RDF>
   <cc:Work rdf:about="">
    <dc:format>image/svg+xml</dc:format>
    <dc:type rdf:resource="http://purl.org/dc/dcmitype/StillImage"/>
    <dc:title/>
   </cc:Work>
  </rdf:RDF>
 </metadata>
 <path transform="translate(-163.65 -154.91)" d="m222.38 599.64c-4.144 0-8.2965 0.17089-12.352 0.51562l-0.59019 0.04981c-26.899 2.3779-46.574 16.173-45.764 32.09l0.15643 2.8779c0.10316 1.8193 0.21308 3.7754 0.30355 5.9453 0.049 1.0703 1.5093 1.8916 3.3264 1.8916h661.64c46.649-0.2832 93.129-0.63965 138.14-1.0596a235.09 235.09 0 0 0 25.273-1.3096c12.509-1.4805 21.191-4.415 26.545-8.9717h0.00169c6.6578-5.6504 6.8676-12.766 6.4651-20.805-0.82018-16.232-1.6336-33.285-2.4453-50.286-0.717-14.983-1.4307-29.927-2.1443-44.233-0.44138-8.4902-1.4222-15.984-8.9831-21.712-8.195-6.1943-23.141-9.334-44.423-9.334-0.25705 0-0.5124 0-0.77283 1e-3 -66.697 0.23731-132.78 23.171-164.45 57.067-3.646 3.9033-7.0434 8.082-10.329 12.124-4.8551 5.9707-9.8743 12.144-15.864 17.664a74.56 74.56 0 0 1-10.48 8.169c-0.257 0.17773-0.5513 0.36816-0.86246 0.54882-0.712 0.46387-1.456 0.91114-2.1815 1.3096a75.768 75.768 0 0 1-13.365 6.0762l-0.46843 0.15722c-0.3526 0.126-0.73479 0.252-1.117 0.36719-2.6804 0.86035-5.4648 1.6045-8.2542 2.206-12.069 2.6602-25.793 3.2979-40.789 1.8936a197.11 197.11 0 0 1-40.557-8.2646c-13.886-4.3887-26.884-9.8604-39.454-15.151-5.5214-2.3252-11.232-4.7285-16.935-7.0059-1.0722-0.42871-2.1266-0.84765-3.197-1.2666-6.9656-2.7148-13.281-4.957-19.306-6.8545a190.55 190.55 0 0 0-46.008-8.5215c-16.588-0.90821-31.206 0.80468-43.438 5.0791a74.597 74.597 0 0 0-9.8253 4.2334c-14.488 7.5234-23.419 18.627-32.056 29.365-10.744 13.356-21.853 27.169-43.79 34.329-25.313 8.2695-62.262 4.834-88.403-1.1406-8.2187-1.8789-16.427-4.04-24.366-6.1309q-4.8095-1.2671-9.6257-2.5166c-6.3095-1.6289-11.473-2.877-16.251-3.9307l-1.511-0.33594c-0.84048-0.18261-1.6818-0.36523-2.5383-0.53906-5.6745-1.1914-10.958-2.1289-16.162-2.8662l-1.2311-0.17969c-2.4682-0.32519-4.7756-0.5957-7.04-0.82324l-0.90389-0.08984c-4.4349-0.42186-9.0245-0.63279-13.623-0.63279z" fill="#f2f2f2"/>
 <path transform="translate(-163.65 -154.91)" d="m906.56 617.41c18.617-16.777 46.309-25.212 69.537-15.805a115.47 115.47 0 0 0-51.888 59.935c-3.6979 9.8385-6.7864 21.166-15.882 26.433-5.6593 3.2775-12.7 3.4377-19.046 1.8556-6.3457-1.5824-12.162-4.7542-17.899-7.8942l-1.6322-0.03692c7.3278-23.966 18.192-47.711 36.81-64.488z" fill="#e6e6e6"/>
 <g fill="#fff">
  <path transform="translate(-163.65 -154.91)" d="m975.96 602.11a98.692 98.692 0 0 0-54.906 25.931 42.5 42.5 0 0 0-8.3453 10.377 24.376 24.376 0 0 0-2.8175 12.516c0.10054 4.0583 0.67335 8.1979-0.21438 12.21a14.925 14.925 0 0 1-7.4246 9.6886c-4.5458 2.613-9.7595 3.4367-14.886 4.0651-5.692 0.69769-11.615 1.3322-16.542 4.5248-0.597 0.38683-1.1623-0.56211-0.56622-0.94836 8.5723-5.5546 19.42-3.5335 28.637-7.2406 4.3011-1.7298 8.1069-4.7663 9.454-9.3572 1.1779-4.0145 0.5909-8.2838 0.45358-12.392a26.011 26.011 0 0 1 2.299-12.34 39.291 39.291 0 0 1 7.9156-10.659 95.749 95.749 0 0 1 24.333-17.42 100.44 100.44 0 0 1 32.6-10.059c0.70319-0.09065 0.70885 1.0146 0.01026 1.1047z"/>
  <path transform="translate(-163.65 -154.91)" d="m925.66 623.18a14.807 14.807 0 0 1 1.6324-19.104c0.50628-0.49873 1.3051 0.26457 0.79811 0.764a13.711 13.711 0 0 0-1.4822 17.774c0.41512 0.5769-0.53561 1.1398-0.94836 0.56623z"/>
  <path transform="translate(-163.65 -154.91)" d="m909.57 648.88a28.539 28.539 0 0 0 20.394-4.0835c0.59833-0.3847 1.1638 0.56413 0.56622 0.94837a29.685 29.685 0 0 1-21.23 4.2061c-0.70084-0.12626-0.42682-1.1966 0.27022-1.071z"/>
  <path transform="translate(-163.65 -154.91)" d="M953.65581,607.34063a8.38147,8.38147,0,0,0,6.2686,4.89443c.70209.11731.42731,1.18752-.27021,1.071a9.39213,9.39213,0,0,1-6.94675-5.39917.57083.57083,0,0,1,.19107-.7573.55506.55506,0,0,1,.75729.19107Z"/>
 </g>
 <path transform="translate(-163.65 -154.91)" d="m1001.7 682.51c-0.44048-0.06079-0.881-0.12157-1.3279-0.1756a110.38 110.38 0 0 0-17.882-0.90839c-0.46221 0.00673-0.93054 0.02051-1.3916 0.0405a116.36 116.36 0 0 0-41.75 9.6101 113 113 0 0 0-15.163 8.0555c-6.6877 4.2344-13.602 9.3576-21.078 11.085a19.386 19.386 0 0 1-2.3622 0.42086l-30.889-26.745c-0.0397-0.096-0.08581-0.18531-0.12584-0.28162l-1.2821-1.0115c0.23871-0.17556 0.49008-0.35252 0.72879-0.52808 0.138-0.10241 0.283-0.19887 0.421-0.30128 0.09421-0.06639 0.18881-0.13253 0.27-0.19782 0.03128-0.02222 0.0629-0.04413 0.08811-0.05934 0.08122-0.06529 0.1636-0.11732 0.23871-0.17556q2.1034-1.4895 4.2352-2.9546c0.00611-0.00705 0.00611-0.00705 0.0191-0.00815a166.16 166.16 0 0 1 34.601-18.599c0.36686-0.13859 0.73948-0.28453 1.1204-0.4109a107.83 107.83 0 0 1 16.939-4.7665 95.329 95.329 0 0 1 9.5528-1.3343 79.272 79.272 0 0 1 24.723 1.7516c16.143 3.7433 30.91 12.608 39.656 26.433 0.22361 0.35381 0.44059 0.70193 0.65797 1.0628z" fill="#e6e6e6"/>
 <g fill="#fff">
  <path transform="translate(-163.65 -154.91)" d="m1001.3 682.84a98.692 98.692 0 0 0-59.452-12.353 42.5 42.5 0 0 0-12.911 3.2607 24.376 24.376 0 0 0-9.7849 8.2967c-2.3631 3.3009-4.3981 6.951-7.5224 9.62a14.925 14.925 0 0 1-11.761 3.2658c-5.2028-0.6506-9.8616-3.1318-14.333-5.7166-4.9648-2.8699-10.076-5.9295-15.932-6.3468-0.70956-0.05056-0.58961-1.1486 0.11888-1.0981 10.189 0.72611 17.633 8.8707 27.225 11.46 4.4756 1.2084 9.3426 1.0753 13.182-1.7792 3.3575-2.4962 5.4592-6.2584 7.823-9.6213a26.011 26.011 0 0 1 9.2653-8.4689 39.291 39.291 0 0 1 12.738-3.7451 95.749 95.749 0 0 1 29.917 0.74161 100.44 100.44 0 0 1 32.085 11.596c0.616 0.351-0.04488 1.2369-0.6569 0.88819z"/>
  <path transform="translate(-163.65 -154.91)" d="m948.41 669.38a14.807 14.807 0 0 1 12.805-14.271c0.70451-0.09339 0.88273 0.997 0.17729 1.0905a13.711 13.711 0 0 0-11.884 13.299c-0.01588 0.71056-1.1139 0.58761-1.0981-0.11888z"/>
  <path transform="translate(-163.65 -154.91)" d="m920.09 680.21a28.539 28.539 0 0 0 18.742 9.0181c0.70936 0.05308 0.58962 1.1511-0.11888 1.0981a29.685 29.685 0 0 1-19.484-9.4238c-0.48357-0.52277 0.37961-1.2124 0.86055-0.69243z"/>
  <path transform="translate(-163.65 -154.91)" d="M980.30308,673.58367a8.38147,8.38147,0,0,0,2.05834,7.68205c.49.51638-.37378,1.20545-.86055.69243a9.39216,9.39216,0,0,1-2.29591-8.49336.57082.57082,0,0,1,.6085-.48962.55506.55506,0,0,1,.48962.6085Z"/>
 </g>
 <path transform="translate(-163.65 -154.91)" d="m419.19 634.09c15.245-23.122 42.515-39.848 69.975-36.249a127.6 127.6 0 0 0-38.822 78.537c-1.218 11.551-1.3699 24.526-9.6324 32.69-5.141 5.0798-12.627 7.21-19.854 7.2831-7.2271 0.073-14.331-1.7012-21.34-3.4636l-1.7559 0.41459c1.17-27.671 6.1842-56.09 21.429-79.212z" fill="#e6e6e6"/>
 <g fill="#fff">
  <path transform="translate(-163.65 -154.91)" d="m489.17 598.42a109.07 109.07 0 0 0-51.51 43.008 46.968 46.968 0 0 0-6.0388 13.42 26.938 26.938 0 0 0 0.46844 14.17c1.2366 4.3125 3.0008 8.5806 3.1675 13.119a16.494 16.494 0 0 1-5.2454 12.428c-4.135 4.0593-9.482 6.3908-14.79 8.489-5.8937 2.3297-12.052 4.6562-16.434 9.4415-0.53088 0.57981-1.3995-0.27784-0.86943-0.85677 7.6231-8.3256 19.787-9.1818 28.614-15.711 4.1189-3.0467 7.3446-7.3531 7.5081-12.638 0.143-4.6214-1.6726-9.0242-2.9623-13.38a28.745 28.745 0 0 1-0.97426-13.838 43.421 43.421 0 0 1 5.5006-13.602 105.81 105.81 0 0 1 21.179-25.401 111 111 0 0 1 32.068-19.827c0.72686-0.29258 1.0404 0.88795 0.31829 1.1786z"/>
  <path transform="translate(-163.65 -154.91)" d="m441.23 634.96a16.364 16.364 0 0 1-3.5688-20.886c0.40273-0.67425 1.4694-0.08011 1.0661 0.595a15.152 15.152 0 0 0 3.3594 19.422c0.60449 0.50153-0.25575 1.3681-0.85677 0.86943z"/>
  <path transform="translate(-163.65 -154.91)" d="m431.18 666.92a31.539 31.539 0 0 0 20.676-10.041c0.53291-0.5779 1.4017 0.27957 0.86942 0.85678a32.806 32.806 0 0 1-21.536 10.405c-0.7847 0.05994-0.78939-1.161-9e-3 -1.2206z"/>
  <path transform="translate(-163.65 -154.91)" d="m466.77 610.22a9.2625 9.2625 0 0 0 8.0661 3.4908c0.78355-0.06985 0.7874 1.1512 9e-3 1.2206a10.379 10.379 0 0 1-8.9318-3.842 0.63082 0.63082 0 0 1-0.00633-0.8631 0.61341 0.61341 0 0 1 0.86311-0.00633z"/>
 </g>
 <path transform="translate(-163.65 -154.91)" d="m539.03 677.26c-0.488 0.05753-0.976 0.11506-1.4691 0.18161a121.98 121.98 0 0 0-19.378 4.0032c-0.49248 0.13578-0.98953 0.2808-1.4771 0.43045a128.6 128.6 0 0 0-41.98 21.893 124.88 124.88 0 0 0-13.976 12.834c-5.9747 6.3893-11.944 13.792-19.46 17.719a21.424 21.424 0 0 1-2.4093 1.1073l-40.477-20.012c-0.06916-0.09164-0.14332-0.17432-0.21294-0.26618l-1.6526-0.72512c0.20647-0.25418 0.42608-0.51337 0.63255-0.76755 0.11916-0.14794 0.24733-0.29142 0.36649-0.43936 0.08229-0.09722 0.16507-0.19427 0.23377-0.2867 0.02727-0.03246 0.055-0.0647 0.07773-0.088 0.0687-0.09243 0.14233-0.171 0.20647-0.25418q1.8353-2.1783 3.7076-4.3383c0.00457-0.00924 0.00457-0.00924 0.01816-0.014 9.5388-10.948 20.075-21.196 31.833-29.519 0.35381-0.25029 0.71174-0.51 1.084-0.75118a119.17 119.17 0 0 1 16.791-9.8104 105.35 105.35 0 0 1 9.8458-4.0847 87.605 87.605 0 0 1 26.93-5.0046c18.307-0.4875 36.566 4.8854 49.767 17.238 0.33752 0.31625 0.66644 0.6282 0.99932 0.95369z" fill="#e6e6e6"/>
 <g fill="#fff">
  <path transform="translate(-163.65 -154.91)" d="m538.69 677.73a109.07 109.07 0 0 0-67.022 3.3272 46.968 46.968 0 0 0-12.901 7.0792 26.938 26.938 0 0 0-8.1571 11.596c-1.6091 4.1878-2.7701 8.6578-5.3692 12.382a16.494 16.494 0 0 1-11.671 6.7648c-5.7456 0.75158-11.419-0.60613-16.92-2.1267-6.1084-1.6882-12.426-3.5386-18.806-2.3558-0.773 0.14332-0.95015-1.0644-0.17835-1.2075 11.099-2.0579 21.327 4.582 32.306 4.6833 5.123 0.04728 10.291-1.449 13.604-5.5702 2.8966-3.6038 4.0977-8.2123 5.6904-12.467a28.745 28.745 0 0 1 7.5535-11.635 43.421 43.421 0 0 1 12.582-7.5491 105.81 105.81 0 0 1 32.203-7.5296 111 111 0 0 1 37.542 3.4764c0.75651 0.204 0.2961 1.3354-0.45548 1.1327z"/>
  <path transform="translate(-163.65 -154.91)" d="m478.41 678.03a16.364 16.364 0 0 1 9.7256-18.825c0.7275-0.29588 1.2215 0.82072 0.493 1.117a15.152 15.152 0 0 0-9.011 17.53c0.1807 0.76438-1.0279 0.93836-1.2075 0.17835z"/>
  <path transform="translate(-163.65 -154.91)" d="m451.14 697.5a31.539 31.539 0 0 0 22.554 4.4311c0.77345-0.14057 0.95087 1.0671 0.17835 1.2076a32.806 32.806 0 0 1-23.46-4.6587c-0.66262-0.42459 0.06872-1.4023 0.72775-0.98z"/>
  <path transform="translate(-163.65 -154.91)" d="M513.69745,673.65809a9.26255,9.26255,0,0,0,4.33861,7.64357c.66768.416-.06442,1.39325-.72775.98a10.37942,10.37942,0,0,1-4.8184-8.44519.63083.63083,0,0,1,.5146-.69295.61341.61341,0,0,1,.69294.5146Z"/>
 </g>
 <path transform="translate(-163.65 -154.91)" d="m527.69 460.74a9.7602 9.7602 0 0 0-1.2816-14.911l15.932-77.107-17.189 5.4226-12.818 74.595a9.8131 9.8131 0 0 0 15.357 12.001z" fill="#ffb6b6"/>
 <path transform="translate(-163.65 -154.91)" d="m564.52 254.63-10.648-8.0374s-9.3929-0.66516-11.056 16.274-12.079 81.95-12.079 81.95l-16.293 75.463 22.554 4.9505 17.451-81.438 17.469-56.184z" fill="#dde6d5"/>
 <path transform="translate(-163.65 -154.91)" d="m556.4 394.26-51.075-39.713a3.8086 3.8086 0 0 1-0.66807-5.3384l34.751-44.693a3.8086 3.8086 0 0 1 5.3384-0.668l51.075 39.713a3.8086 3.8086 0 0 1 0.66808 5.3384l-34.751 44.693a3.8086 3.8086 0 0 1-5.3384 0.66802z" fill="#3f3d56"/>
 <path transform="translate(-163.65 -154.91)" d="m556.12 390.15-46.742-36.345a3.3816 3.3816 0 0 1-0.59317-4.7399l31.503-40.516a3.3816 3.3816 0 0 1 4.7399-0.59317l46.742 36.345a3.3816 3.3816 0 0 1 0.59317 4.7399l-31.503 40.516a3.3816 3.3816 0 0 1-4.7399 0.59317z" fill="#fff"/>
 <g fill="#e4e4e4">
  <path transform="translate(-163.65 -154.91)" d="m515.51 352.78a0.84532 0.84532 0 0 1-0.14822-1.1849l15.893-20.439a0.84438 0.84438 0 1 1 1.3332 1.0366l-15.893 20.439a0.84539 0.84539 0 0 1-1.185 0.14829z"/>
  <path transform="translate(-163.65 -154.91)" d="m518.14 354.83a0.8454 0.8454 0 0 1-0.14829-1.185l15.893-20.439a0.84442 0.84442 0 1 1 1.3332 1.0367l-15.893 20.439a0.8454 0.8454 0 0 1-1.185 0.14829z"/>
  <path transform="translate(-163.65 -154.91)" d="m529.78 345.29a0.8454 0.8454 0 0 1-0.14829-1.185l6.889-8.8599a0.84443 0.84443 0 1 1 1.3332 1.0367l-6.889 8.8599a0.8454 0.8454 0 0 1-1.185 0.14833z"/>
  <path transform="translate(-163.65 -154.91)" d="m533.33 362.68a0.84533 0.84533 0 0 1-0.14822-1.1849l25.089-32.267a0.84438 0.84438 0 1 1 1.3332 1.0366l-25.089 32.267a0.8454 0.8454 0 0 1-1.185 0.14829z"/>
  <path transform="translate(-163.65 -154.91)" d="m535.97 364.73a0.8454 0.8454 0 0 1-0.14829-1.185l25.089-32.267a0.84442 0.84442 0 1 1 1.3332 1.0367l-25.089 32.267a0.8454 0.8454 0 0 1-1.185 0.14833z"/>
  <path transform="translate(-163.65 -154.91)" d="m541.94 369.38a0.84533 0.84533 0 0 1-0.14823-1.1849l25.089-32.267a0.84438 0.84438 0 1 1 1.3332 1.0366l-25.089 32.267a0.8454 0.8454 0 0 1-1.185 0.14829z"/>
  <path transform="translate(-163.65 -154.91)" d="m544.58 371.43a0.8454 0.8454 0 0 1-0.14828-1.185l25.089-32.267a0.84442 0.84442 0 1 1 1.3332 1.0367l-25.089 32.267a0.84541 0.84541 0 0 1-1.185 0.14833z"/>
  <path transform="translate(-163.65 -154.91)" d="m550.56 376.08a0.84533 0.84533 0 0 1-0.14822-1.1849l25.089-32.267a0.84438 0.84438 0 1 1 1.3332 1.0366l-25.089 32.267a0.8454 0.8454 0 0 1-1.185 0.14829z"/>
  <path transform="translate(-163.65 -154.91)" d="m553.19 378.12a0.8454 0.8454 0 0 1-0.14829-1.185l25.089-32.267a0.84443 0.84443 0 0 1 1.3332 1.0367l-25.089 32.267a0.8454 0.8454 0 0 1-1.185 0.14823z"/>
 </g>
 <circle cx="347.61" cy="260.34" r=".34668" fill="#fff"/>
 <path transform="translate(-163.65 -154.91)" d="m561.78 176.71a83.478 83.478 0 0 1-5.9562 19.01c-15.673 33.157 28.961 22.349 44.912 22.349 17.44 0 34.126 9.1707 31.578-31.578-1.0886-17.406-14.138-31.578-31.578-31.578-14.897 0-35.841 6.6213-38.956 21.796z" fill="#4a3535"/>
 <polygon points="453.34 508.08 438.48 508.08 431.41 450.77 453.34 450.77" fill="#ffb6b6"/>
 <path transform="translate(-163.65 -154.91)" d="m624.83 688.74h-10.656l-1.902-10.06-4.8714 10.06h-28.262a6.353 6.353 0 0 1-3.61-11.581l22.569-15.587v-10.171l23.739 1.4169z" fill="#2f2e41"/>
 <polygon points="541.62 489.33 529.69 498.2 489.82 456.43 507.42 443.34" fill="#ffb6b6"/>
 <path transform="translate(-163.65 -154.91)" d="m726.92 660.22-8.5508 6.3585-7.5295-6.938 2.0942 10.98-22.679 16.864a6.353 6.353 0 0 1-9.8074-7.139l8.8096-25.975-6.069-8.1615 19.895-13.028z" fill="#2f2e41"/>
 <polygon points="404.68 244.31 475.21 233.33 461.18 191.13 404.68 191.13" fill="#ffb6b6"/>
 <path transform="translate(-163.65 -154.91)" d="m634.29 367.29s28.193 24.357 15.185 93.793l-15.88 68.036 43.266 75.116-22 12-53.318-74.105-24.398-57.23-12.905-100.3z" fill="#2f2e41"/>
 <polygon points="426.94 346.3 425.25 372.56 430.21 450.33 454.85 458.81 459.52 379.13" fill="#2f2e41"/>
 <path transform="translate(-163.65 -154.91)" d="m583.02 226.8 27.265 1.0637 10.866 18.038 24.792 4.8398-14.8 74.873 2.7217 42.617-24.686-0.15055a72.207 72.207 0 0 0-48.314 18.151l0.73849-55.32-10.618-41.296 2.3864-43.301 19.944-2.493z" fill="#dde6d5"/>
 <circle cx="434.47" cy="37.487" r="25.661" fill="#ffb6b6"/>
 <path transform="translate(-163.65 -154.91)" d="m580.7 166.24a29.393 29.393 0 0 1 44.688 25.653c-13.075 3.2828-26.812 5.7951-40.756 0.78522l-3.293-8.0593-1.9414 8.0652c-4.2464 1.7357-8.5038 3.2042-12.761-0.01676a30.012 30.012 0 0 1 14.063-26.427z" fill="#4a3535"/>
 <path transform="translate(-163.65 -154.91)" d="m641.19 419.97 3.4591 31.393a3.8317 3.8317 0 0 0 3.6624 2.7052h15.945a3.8318 3.8318 0 0 0 3.6628-2.7052l2.8651-24.061a5.8193 5.8193 0 1 0 1.5005-10.947 3.7976 3.7976 0 0 0-2.9073-1.344h-24.525a3.8324 3.8324 0 0 0-3.6628 4.9591zm30.095 5.7046 1.7549-5.7046a3.7923 3.7923 0 0 0 0.058-2.0283c0.07506-4e-3 0.14566-0.02236 0.22154-0.02236a4.155 4.155 0 1 1 0 8.31 4.1025 4.1025 0 0 1-2.0344-0.55475z" fill="#4f83c1"/>
 <path transform="translate(-163.65 -154.91)" d="m665.24 454.09a9.7602 9.7602 0 0 1 1.3573-14.904l-15.54-77.187 17.161 5.5099 12.439 74.659a9.8131 9.8131 0 0 1-15.417 11.922z" fill="#ffb6b6"/>
 <path transform="translate(-163.65 -154.91)" d="m635.29 258.78 10.648-8.0374s9.3929-0.66516 11.056 16.274 12.079 81.95 12.079 81.95l16.293 75.463-22.554 4.9505-17.451-81.438-17.469-56.184z" fill="#dde6d5"/>
 <circle cx="379.74" cy="168.11" r="6.0273" fill="#4f83c1"/>
 <polygon points="187.54 578.01 200.11 578 206.08 529.56 187.54 529.56" fill="#ffb6b6"/>
 <path transform="translate(-163.65 -154.91)" d="m347.99 728.81 3.5355-1.4e-4 13.803-5.6135 7.3982 5.6126h1e-3a15.765 15.765 0 0 1 15.764 15.764v0.51228l-40.502 0.0015z" fill="#2f2e41"/>
 <polygon points="236.22 570.09 248.47 572.86 264.98 526.91 246.89 522.83" fill="#ffb6b6"/>
 <path transform="translate(-163.65 -154.91)" d="m397.65 720.29 3.4487 0.77866 14.701-2.435 5.9801 7.1044 1e-3 2.2e-4a15.765 15.765 0 0 1 11.905 18.849l-0.11284 0.4997-39.507-8.9202z" fill="#2f2e41"/>
 <path transform="translate(-163.65 -154.91)" d="m328.2 483.7 11.359 127.26s-4.2559 76.401 9.4771 103.29h19.917l9.8611-110.26 1.2383-74.009 42.699 62.439-27.197 120.03 24.513 2.1914 44.133-130.26-48.485-122.28z" fill="#2f2e41"/>
 <circle cx="176.45" cy="96.839" r="29.293" fill="#ffb8b8"/>
 <path transform="translate(-163.65 -154.91)" d="m391.59 308.96-24.032-10.311-11.699-12.409-29.225 4.7134-7.7541 13.295-25.101 23.34 29.409 132.97-0.89022 29.043s18.822 8.4737 100.45-11.036c0.97887-0.23395-1.0702-1.2585-1.0702-1.2585z" fill="#413c53"/>
 <path transform="translate(-163.65 -154.91)" d="M309.63622,268.36932q-.30616-.41779-.60633-.84265c-.08055.17009-.14458.34581-.23663.5119Z" fill="#2f2e41"/>
 <path transform="translate(-163.65 -154.91)" d="m369.24 230.32a18.691 18.691 0 0 0-9.7798-9.448 17.845 17.845 0 0 0-13.379 0.0117c-3.8726-2.4467-8.1755-4.3864-12.707-4.6266s-9.3226 1.4409-12.115 5.1416a19.776 19.776 0 0 1-2.1166 2.7498c-2.2447 2.0788-5.6561 1.7789-8.6397 1.3539q2.0073 1.7204 4.0157 3.4408-2.4298 0.63476-4.8602 1.2696 2.8358 1.7198 5.6711 3.4397c-5.488 3.294-7.9824 10.484-7.3235 17.013 0.62334 6.1821 3.608 11.835 7.1759 16.86 1.4233-3.0035 1.1166-6.5974 1.0931-9.9802-0.02451-3.5743 0.60783-7.633 3.4719-9.6306 1.932-1.3475 4.4164-1.4076 6.7462-1.3949a309.94 309.94 0 0 1 35.159 2.195 9.8974 9.8974 0 0 1 4.5015 1.3056c2.5804 1.7604 3.0832 5.3933 3.3423 8.5805a62.172 62.172 0 0 0 1.9846-16.117 29.707 29.707 0 0 0-2.2407-12.164z" fill="#2f2e41"/>
 <circle cx="214.7" cy="371.89" r="46.105" fill="#fff"/>
 <path transform="translate(-163.65 -154.91)" d="m378.36 479.67a47.383 47.383 0 0 0-7.0799 0.53279c-1.1987 0.17416-2.3663 0.39953-3.5244 0.67618a47.106 47.106 0 0 0-19.968 81.76c0.78893 0.666 1.5879 1.3115 2.4178 1.9262a47.12 47.12 0 1 0 28.155-84.895zm0 92.21a44.821 44.821 0 0 1-26.639-8.7395c-0.84-0.61471-1.6494-1.2499-2.4383-1.9261a45.054 45.054 0 0 1 20.102-78.594c1.1471-0.23563 2.2948-0.42011 3.4629-0.5635a44.602 44.602 0 0 1 5.512-0.33812 45.081 45.081 0 0 1 0 90.161z" fill="#3f3d56"/>
 <g fill="#4f83c1">
  <rect transform="translate(593.06 874.11) rotate(180)" x="352.74" y="511.44" width="51.228" height="6.1474" rx="3"/>
  <rect transform="translate(593.06 898.7) rotate(180)" x="352.74" y="523.73" width="51.228" height="6.1474" rx="3"/>
  <rect transform="translate(593.06 923.29) rotate(180)" x="352.74" y="536.03" width="51.228" height="6.1474" rx="3"/>
 </g>
 <polygon points="730.52 576.44 717.35 576.44 711.08 525.64 730.52 525.64" fill="#ffb8b8"/>
 <polygon points="668.21 576.44 655.04 576.44 648.77 525.64 668.21 525.64" fill="#ffb8b8"/>
 <g fill="#2f2e41">
  <path transform="translate(-163.65 -154.91)" d="m832.32 745.09-40.502-0.0015v-0.51225a15.765 15.765 0 0 1 15.764-15.764h1e-3l7.3982-5.6126 13.803 5.6135 3.5355 1.4e-4z"/>
  <path transform="translate(-163.65 -154.91)" d="m896.32 745.09-40.502-0.0015v-0.51225a15.765 15.765 0 0 1 15.764-15.764h1e-3l7.3982-5.6126 13.803 5.6135 3.5355 1.4e-4z"/>
  <path transform="translate(-163.65 -154.91)" d="m818.94 430.69-20.017 121.88 5.4475 18.163-7.1483 12.864 10.497 112.97-4.2611 9.3812 11.906 7.3424h24.226l1.2858-102.27 5.9842-15.016v-8.2756l12.182-62.364 2.243 87.336 3.5436 15.039-2.9766 10.708 3.8893 7.5019 10.331 69.571h27.165l-2.101-16.185a11.962 11.962 0 0 0 6.2806-13.237l-1.5575-7.0941 3.5448-20.976 6.4552-117.02-1.82-94.423-31.778-24.301z"/>
 </g>
 <circle id="ab6171fa-7d69-4734-b81c-8dff60f9761b" cx="701.18" cy="94.026" r="25.239" fill="#ffb8b8" data-name="Ellipse 219"/>
 <path transform="translate(-163.65 -154.91)" d="m809.69 479.06a10.803 10.803 0 0 0-1.7298-16.475l9.8145-37.115-18.909 6.3601-6.4211 34.27a10.862 10.862 0 0 0 17.245 12.96z" fill="#ffb8b8"/>
 <path transform="translate(-163.65 -154.91)" d="m820.01 300.86-4.0588-0.84225-3.4614 1.9166s-9.6688 12.892-9.6688 24.709-11.817 125.69-11.817 125.69l21.486 9.6688 17.189-89.168z" fill="#e6e6e6" data-name="Path 1101"/>
 <path transform="translate(-163.65 -154.91)" d="m886.93 230.43s6.6011-12.619-7.9216-13.767c0 0-12.381-11.231-25-2.0532 0 0-6.8833 0-10.647 7.7893 0 0-5.4137-2.0532-6.6034 3.4416 0 0-3.9613 11.472 0 21.797s5.2772 11.472 5.2772 11.472-6.5093-21.647 9.3349-22.794 33.574-11.049 34.895 1.5705 3.3075 15.729 3.3075 15.729 12.541-18.023-2.642-23.186z" fill="#9f9fbb" data-name="Path 1104"/>
 <path transform="translate(-163.65 -154.91)" d="m979.13 583.6a7.7234 7.7234 0 0 1-5.1631-1.9697l-76.381-67.991a7.7892 7.7892 0 0 1-0.63819-10.984l48.93-54.968a7.7888 7.7888 0 0 1 10.985-0.63867l76.381 67.992a7.7797 7.7797 0 0 1 0.63818 10.983l-48.931 54.968a7.7263 7.7263 0 0 1-5.3604 2.5947c-0.15431 0.00976-0.30812 0.01367-0.46144 0.01367z" fill="#fff"/>
 <path transform="translate(-163.65 -154.91)" d="m979.13 584.1a8.2194 8.2194 0 0 1-5.4946-2.0957l-76.381-67.991a8.2912 8.2912 0 0 1-0.6792-11.691l48.93-54.968a8.292 8.292 0 0 1 11.691-0.67968l76.381 67.992a8.2815 8.2815 0 0 1 0.6792 11.69l-48.931 54.968a8.2287 8.2287 0 0 1-5.7046 2.7617c-0.16455 0.00878-0.32812 0.01367-0.49166 0.01367zm-27.436-137.52a6.2639 6.2639 0 0 0-4.6943 2.102l-48.93 54.968a6.2875 6.2875 0 0 0 0.51513 8.8672l76.381 67.991a6.279 6.279 0 0 0 8.8667-0.51562l48.931-54.968a6.2801 6.2801 0 0 0-0.51514-8.8662l-76.381-67.992a6.2549 6.2549 0 0 0-4.1724-1.5864z" fill="#3f3d56"/>
 <g fill="#4f83c1">
  <path transform="translate(-163.65 -154.91)" d="m1006.8 531.54a3.3525 3.3525 0 0 1-2.2368-0.85059l-59.956-53.371a3.3667 3.3667 0 1 1 4.477-5.0293l59.957 53.371a3.3656 3.3656 0 0 1-2.2407 5.8799z"/>
  <path transform="translate(-163.65 -154.91)" d="m995.39 544.39a3.3526 3.3526 0 0 1-2.2368-0.85059l-59.956-53.371a3.3663 3.3663 0 1 1 4.477-5.0283l59.957 53.371a3.3648 3.3648 0 0 1-2.2407 5.8789z"/>
  <path transform="translate(-163.65 -154.91)" d="m983.95 557.24a3.35 3.35 0 0 1-2.2373-0.85156l-59.957-53.37a3.3668 3.3668 0 1 1 4.4775-5.0293l59.956 53.371a3.3653 3.3653 0 0 1-2.2397 5.8799z"/>
 </g>
 <path transform="translate(-163.65 -154.91)" d="m915.39 481.25a10.803 10.803 0 0 1 5.9102-15.475l0.0649-38.39 16.636 11.011-2.6121 34.768a10.862 10.862 0 0 1-19.999 8.0864z" fill="#ffb8b8"/>
 <path transform="translate(-163.65 -154.91)" d="m916.93 311.38 7.4321-7.1636 5.4596 3.9406s5.3716 6.4459 9.6688 25.784 0 125.69 0 125.69l-23.635-3.223 3.2229-55.864-9.6688-47.27z" fill="#e6e6e6" data-name="Path 1100"/>
 <path transform="translate(-163.65 -154.91)" d="m927.9 305.96-25.039-11.961-17-15.768-31-0.232-10 13-26.4 8.9678 4.4001 91.032-3 7s2.09 1.8881 3.045 2.9441-1.3195 9.8965-1.3195 9.8965l-1.2824 9.618 3.5569 2.5414-4.624 5.462-1.148 8.6098s80.715-20.062 95.966 13.172c0.80578 1.7559-1.1785-15.405-1.1785-15.405l-1.9842-12.563 1.9685-11.276 3-3-5.0315-5.0315 3.2257-23.874z" fill="#3f3d56"/>
 <path transform="translate(-163.65 -154.91)" d="m360.06 507.78a11.6 11.6 0 0 0-8.5036-15.622l-5.5622-40.844-16.127 14.098 7.7545 36.625a11.662 11.662 0 0 0 22.439 5.7436z" fill="#ffb8b8"/>
 <path transform="translate(-163.65 -154.91)" d="m296.88 326.84-4.3714 0.83734-2.6423 3.3266s-4.2746 16.766 0.59485 28.484 40.076 129.5 40.076 129.5l25.288 0.73318-19.699-95.494z" fill="#413c53" data-name="Path 1101"/>
 <path transform="translate(-163.65 -154.91)" d="m396.57 501.78a11.599 11.599 0 0 1 2.0656-17.666l-10.068-39.972 20.221 7.0678 6.4604 36.875a11.662 11.662 0 0 1-18.679 13.696z" fill="#ffb8b8"/>
 <path transform="translate(-163.65 -154.91)" d="m387.73 310.34 4.3684-0.85293 3.6921 2.1015s10.218 13.964 10.068 26.651 11.097 135.1 11.097 135.1l-23.191 10.109-17.327-95.953z" fill="#413c53" data-name="Path 1101"/>
</svg>
